<?xml version="1.0" encoding="UTF-8"?>
<svg xmlns="http://www.w3.org/2000/svg" viewBox="0 0 4362.75 3774.12">
  <defs>
    <style>
      .cls-1 {
        fill: #fbc4ae;
      }

      .cls-2 {
        fill: #c7bbaf;
        stroke: #c7bbaf;
      }

      .cls-2, .cls-3, .cls-4, .cls-5, .cls-6, .cls-7, .cls-8, .cls-9, .cls-10, .cls-11, .cls-12, .cls-13 {
        stroke-miterlimit: 10;
      }

      .cls-2, .cls-3, .cls-4, .cls-5, .cls-7, .cls-8, .cls-9, .cls-10, .cls-11, .cls-12, .cls-13 {
        stroke-width: 3px;
      }

      .cls-3 {
        stroke-dasharray: 0 0 0 0 0 0;
      }

      .cls-3, .cls-6, .cls-8, .cls-9 {
        fill: none;
      }

      .cls-3, .cls-6, .cls-9 {
        stroke: #fbc5af;
      }

      .cls-4 {
        stroke: #ee94bd;
      }

      .cls-4, .cls-14, .cls-11, .cls-13 {
        fill: #ed93bd;
      }

      .cls-5 {
        fill: #fb93ad;
        stroke: #f29b80;
      }

      .cls-6 {
        stroke-width: 2px;
      }

      .cls-7 {
        fill: #dbcab8;
        stroke: #c8bbaf;
      }

      .cls-8 {
        stroke: #ed93bd;
      }

      .cls-15 {
        fill: #fbc5af;
      }

      .cls-10 {
        fill: #f5ac8d;
        stroke: #f1987d;
      }

      .cls-11 {
        stroke: #e987b4;
      }

      .cls-12 {
        fill: #fb93af;
        stroke: #fb93af;
      }

      .cls-13 {
        stroke: #e986b3;
      }

      .cls-16 {
        fill: #e986b3;
      }
    </style>
  </defs>
  <g id="Layer_10" data-name="Layer 10">
    <g>
      <path class="cls-11" d="M2716.72,162.19c-29.15,8.1-58.3,16.19-87.44,24.29-12.75,3.54-25.75,7.19-36.76,14.54-14.63,9.76-24.41,25.11-33.76,40-14.84,23.63-29.84,47.61-38.08,74.27-12.91,41.78-8.47,87.7-23.46,128.78-5.76,15.79-14.24,30.41-21.69,45.47-11.28,22.82-20.21,46.74-28.09,70.95-10.51,32.34-19,68.35-5.49,99.56,12.09,27.92,39.16,45.86,64.82,62.2-10.5-6.75-17.24-17.98-22.43-29.34-25.65-56.22-19.96-125.58,14.53-176.85-12.15,45.71-24.33,94.04-11.81,139.65,5.37,19.57,15.15,37.86,18.93,57.8,2.8,14.78,2.21,29.98,3.68,44.95s5.4,30.43,15.56,41.51c10.16,11.09,27.93,16.26,40.77,8.43-17.44-4.66-27.04-24.72-25.94-42.75,1.11-18.02,10.28-34.42,19.22-50.11,1.12,24.17,26.72,42.04,27.4,66.23.57,20.1-20.26,37.89-40.02,34.2,18.91,9.07,41.29,15.71,60.49,7.28,16.35-7.18,26.75-24.18,30.36-41.68,3.6-17.49,1.4-35.62-1.31-53.27"/>
      <path class="cls-11" d="M2631.39,798.69c3.61,6.35,11.06,10.31,18.35,9.75-6.02-19.48,5.57-42.67,24.76-49.57-4.42-24.59,10.92-51.25,34.41-59.78,15.43-5.6,32.39-3.85,48.78-2.97,35.8,1.93,71.84-.66,106.99-7.71,6.34-1.27,13.32-2.6,18.96.56,4.59,2.57,7.2,7.53,10.01,11.97,7.17,11.31,17.88,21.08,30.97,23.88,13.09,2.8,28.45-3.05,33.74-15.35-.51,4.01-5.31,6.84-9.07,5.33-5.45-13.37-5.35-28.89.25-42.19,11.4,5.47,24.58,7.17,37,4.78-10.84-2.41-18.78-13.96-17.16-24.94.17,9.98,6.59,19.59,15.75,23.57,9.16,3.97,20.57,2.09,27.97-4.61-8.68,1.25-13.69-9.37-15.8-17.88-4.41-17.78-8.81-35.56-13.22-53.33,9.54,9.73,25.15,11.21,38.17,7.2,13.02-4,24.08-12.56,34.81-20.94-12,6.35-27.71,4.87-38.32-3.61,14.81,4.58,31.62,2.23,44.6-6.24-21.84,1.04-38.78-17.93-52.2-35.19,10.38,12.27,30.28,15.05,43.63,6.09-15.25-.83-28.16-11.7-37.42-23.84-11.37-14.91-19.12-32.56-22.4-51.03-3.85-21.7-1.58-43.94-1.3-65.97.8-65.32-16.58-130.77-49.68-187.09-9.91-16.86-21.43-33.16-36.83-45.21-40.03-31.32-96.29-27.75-146.8-22.07-18.52,2.08-37.74,4.48-53.51,14.42"/>
    </g>
  </g>
  <g id="Layer_13" data-name="Layer 13">
    <path class="cls-16" d="M2721.2,613.4c-4.53,25.15,4.73,52.35,23.66,69.51,4.74-7.39,14.46-11.19,22.95-8.97,3.37.88,6.92,2.61,10.17,1.35-1.5-7.93,5.91-14.54,8.36-22.22,2.23-6.98.13-14.8-4-20.86s-10.07-10.63-16.14-14.74c-9.21-6.25-19.23-11.81-30.22-13.56-5.3-.84-13.11.18-14.79,9.5Z"/>
    <path class="cls-16" d="M2824.13,669.56c5.67,15.36,17.6,27.85,31.45,36.58,13.86,8.72,29.6,13.98,45.45,18.09,9.61,2.49,19.52,4.6,29.4,3.68s19.87-5.29,25.49-13.47c-3.14.81-6.49-1.08-8.28-3.78s-2.32-6.03-2.55-9.26c-.77-10.43,1.03-21.05,5.21-30.64-7.21-4-11.25-11.95-13.98-19.73-5.95-16.97-7.62-35.43-4.82-53.19.59-3.72.97-8.4-2.22-10.4-1.14-.71-2.52-.9-3.85-1.03-25.17-2.52-50.15,7.68-70.94,22.09-9.82,6.81-19.15,14.8-25.14,25.14-5.99,10.34-8.21,23.39-3.54,34.39.37.87,2.23.91-1.68,1.55Z"/>
    <path class="cls-14" d="M2627.06,618.35c-9.8,34.54-7.16,72.47,7.34,105.32,3.69,8.35,8.22,17.03,7.01,26.08,4.01-4.73,6.66-10.45,8.86-16.25,13.86-36.36,11.94-76.56,18.01-115,2.75-17.43,7.1-35.73,1.01-52.3-3.37-9.17-12.95-18.02-21.95-14.21-4.68,1.98-7.47,6.77-9.69,11.34-10.13,20.8-15.68,43.81-10.59,55.01Z"/>
    <path class="cls-16" d="M2743.92,214.9c-21.15,27.1-43.45,57.95-40.09,92.16,27.46-13.21,38.99-48.64,66.75-61.19,15.85-7.16,34.1-5.48,51.4-3.66,15.69,1.65,31.39,3.31,46.94,5.97,16.33,2.8,33.55,6.63,49.04.76-12.43-7.06-23.03-17.33-30.49-29.53-3.21-5.25-5.93-10.96-10.45-15.14-5.51-5.1-13.01-7.31-20.23-9.37-8.12-2.32-18.4-4.01-23.66,2.6-3.4,4.27-3.21,10.58-6.51,14.93-4.11,5.4-12.29,5.88-18.65,3.54s-11.68-6.83-17.63-10.08c-17.13-9.33-35.75-4.67-46.42,9.01Z"/>
  </g>
  <g id="Layer_4" data-name="Layer 4">
    <path class="cls-10" d="M2960.99,755.36c5.38-6.54,8.81-14.67,9.75-23.09.46-4.11.36-8.38,1.98-12.18,1.35-3.19,3.8-5.77,6.23-8.24,12.69-12.91,26.33-24.87,40.78-35.77,6.18-4.66,15.11-9.11,21.02-4.1,6.4,5.42,2.16,16.08-3.85,21.93s-13.99,11.26-14.75,19.61c23.98-19.94,50.84-36.43,79.47-48.8,3.68-1.59,7.65-3.14,11.6-2.46,3.95.69,7.61,2.85,6.56,6.71-.59,2.15-2.33,5.49-4.1,6.84-17.83,13.57-32.81,19.56-46.35,30.77,37.56-24.42,57.36-38.93,57.36-38.93,0,0,7.07-4.27,14.92-8.64,5.16-2.87,10.54-.68,12.46,4.91,2.64,7.7-5.33,14.6-12.27,18.87-15.89,9.79-31.78,19.58-47.67,29.38,12.66-10.74,27.87-16.4,44.02-26.35,1.94-1.19,1.94-2.5,4.22-2.39,6.29.32,11.16,10.37,6.48,14.58-9.45,8.51-19.03,13.45-24.66,16.27-17.35,8.72-24.4,12.86-41.75,21.57,10.63-8.87,26.18-11.4,39.07-6.36,1.81.71,3.82,1.87,4.04,3.81.19,1.69-1.09,3.17-2.38,4.28-11.32,9.71-28.15,8.63-41.98,14.19-9.33,3.75-17.12,10.46-24.71,17.05-26.96,23.41-54.03,46.92-77.35,73.95-9.14,10.6-17.68,21.7-27,32.15-31.18,34.98-71,62.2-114.92,78.55-8.54,3.18-17.65,5.99-26.63,4.43-9.45-1.64-17.37-7.88-24.83-13.9-8.55-6.9-17.09-13.8-25.64-20.69,15.8-29.2,51.18-40.73,76.67-62.02,13.89-11.6,24.92-26.24,38.17-38.57,8.13-7.56,17.05-14.21,25.95-20.84,21.28-15.85,45.53-28.76,60.14-46.54Z"/>
    <path class="cls-10" d="M2673.65,772.01c-5.06-18.9-.9-40.05,10.93-55.64,11.83-15.59,31.08-25.27,50.65-25.49,6.85-.07,13.74.94,20.53.06,20.21-2.62,35.68-31.36,31.44-51.29,13.45,6.24,32.06,8.19,46.88,7.82-1.52,5.96-6.77,20.11-5.96,26.21.81,6.1,4.53,12.23,10.41,14.01,10.84,3.28,21.46-9.07,32.56-6.84,3.17.64,5.98,2.43,8.67,4.23,13.18,8.81,25.68,18.64,37.35,29.38,6.39,5.88,13,13.17,12.54,21.84-.48,8.88-8.21,15.52-15.82,20.12-31.58,19.08-70.06,21.92-105.08,33.56-19.93,6.62-39.34,16.26-60.31,17.29-14.08.69-28.04-2.58-41.65-6.26-10.9-2.95-22.95-7.18-27.8-17.38-2.12-4.46-2.63-9.7-5.33-11.63Z"/>
  </g>
  <g id="Layer_3" data-name="Layer 3">
    <path class="cls-10" d="M2964.6,469.21c5.16,14.52,10.61,32.59,10.61,32.59,5.89,17.46-.32,36.08-6.81,53.33-9.66,25.69-49.58,70.8-74.78,83.83-21.13,10.93-45,15.24-68.61,12.33-59.6-7.33-114.28-38.87-158.15-79.88-16.21-15.16-31.52-32.2-39.36-52.97-3.24-8.58-5.1-18.27-1.85-26.85s13.11-15.08,21.75-11.99c4.96,1.77,8.46,6.11,11.93,10.08,18.48,21.12,43.37,36.56,70.51,43.73-10.87-13.68-18.13-30.19-20.88-47.45,9.94,25.51,31.91,46.02,58.04,54.19,12.13,3.79,24.91,5.02,37.6,5.44,12.98.43,26.04.02,38.8-2.37,46-8.62,83.05-41.57,121.21-74.03Z"/>
  </g>
  <g id="Layer_2" data-name="Layer 2">
    <path class="cls-15" d="M2775.61,239.91c-38.21,14.14-62.96,52.16-74.74,91.16-18.99,62.86-10.03,133.62,24.02,189.78,4.32,7.12,9.16,14.16,15.87,19.09,5.63,4.13,12.31,6.57,19,8.57,50.5,15.07,107.57,6.3,151.21-23.23,43.64-29.53,73-79.25,77.79-131.73,5-54.83-18.75-113.43-65.44-142.6-49.26-30.78-113.71-23.63-147.71-11.04Z"/>
  </g>
  <g id="Layer_5" data-name="Layer 5">
    <path class="cls-7" d="M2791.06,780.8c7.58,6.97,15.15,13.94,22.73,20.92,4.75,4.37,9.64,8.94,12.05,14.93,1.92,4.77,2.1,10.04,2.07,15.18-.09,15.11-1.77,30.21-5,44.97-.68,3.12-1.71,6.59-4.54,8.06-1.89.98-4.16.81-6.21,1.38-4.25,1.18-6.94,5.29-8.89,9.25s-3.71,8.29-7.3,10.85-9.7,2.13-11.28-1.99c-.28,5.69-4.34,11-9.76,12.76s-11.82-.15-15.39-4.58c4.18,7-2.06,16.86-10.13,18.05s-15.94-4.3-20-11.37c-3.82,6.43-11.67,10.2-19.08,9.19-1.19-.16-2.41-.46-3.34-1.23-4.56-3.76,2.85-11.85-.38-16.8-2.06-3.15-6.68-2.59-10.45-2.65-8.63-.14-16.21-5.45-23.19-10.54-13.54-9.89-28.41-22.2-28.78-38.96-.34-15.27,11.7-27.89,15.59-42.66,3-11.39,1.03-23.63,3.91-35.05.47-1.88,1.17-3.86,2.77-4.95,1.01-.7,2.26-.94,3.47-1.17,31.03-5.94,61.7-13.82,91.75-23.56,1.84-.6,3.74-1.24,5.15-2.55,4.25-3.97,1.76-11-1.02-16.11-8.13-14.93-16.59-29.67-25.3-44.56,5.1-3.98,10.32-8.02,16.44-10.12s13.4-1.93,18.48,2.07c3.32,2.61,5.34,6.49,7.16,10.3,4.62,9.68,8.61,19.67,11.91,29.87,3.11,9.6,6.85,20.74,16.37,24.09,7.78,2.73,16.62-1.03,24.55,1.25,2.03.58,4.12,1.57,6.17,1.05,1.93-.49,3.27-2.18,4.59-3.67,5.78-6.5,14.01-10.78,22.65-11.77-7.22-13.98-24.8-27.02-27.67-42.49,7.96-8.48,26.59-3.45,32.97,6.28,6.37,9.73,15.66,19.81,16.15,31.43.14,3.29.44,6.87,2.67,9.3,1.06,1.16,2.47,1.93,3.85,2.68,5.49,2.99,10.98,5.98,16.47,8.97,4.41-6.11,9.6-11.64,15.42-16.43,9.05,6.01,18.11,12.01,27.16,18.02,1.38.92,2.86,1.96,3.33,3.54.62,2.08-.71,4.2-2.06,5.89-6.57,8.23-15.3,14.73-25.07,18.66-2.28-3.54-4.57-7.08-6.85-10.61,4.74,2.75,6.08,6.51,9.12,9.76-6.4,7.66-13.58,14.67-21.4,20.88-10.89,8.66-22.94,15.73-34.32,23.74-20.81,14.66-39.35,32.53-54.78,52.78"/>
    <path class="cls-7" d="M2782.25,661.53c-3.04,4.87-4.33,3.89-3.67,9.6.4,3.46,3.6,5.81,6.51,7.73,3.53,2.32,7.1,4.65,11,6.27,10.44,4.32,22.24,3.14,33.47,1.89,1.02-.11,2.09-.25,2.92-.85,1.53-1.11,1.68-3.31,1.55-5.2-.35-5.04-1.65-10.01-3.81-14.58-11.13,7.21-34.33.03-43.6-9.46-2.28-2.34-3.16,4.32-4.38,4.59Z"/>
  </g>
  <g id="Layer_6" data-name="Layer 6">
    <path class="cls-5" d="M2801.14,584.43c3.7,8.33,12.35,13.29,20.85,16.59,11.36,4.41,23.98,6.88,35.76,3.74,11.78-3.14,22.32-12.96,23.44-25.1-26.81-2.37-54.14,10.03-80.05,4.77Z"/>
  </g>
  <g id="Layer_7" data-name="Layer 7">
    <path class="cls-1" d="M2823.29,587.31c13.31,9.91,36.57,6.96,46.99-5.96-15.22.39-32.68,2.66-46.99,5.96Z"/>
  </g>
  <g id="Layer_8" data-name="Layer 8">
    <path class="cls-12" d="M2753.8,326.01c-18.89,6.52-35.88,20.31-43.06,38.96-7.18,18.65-2.86,42.04,12.65,54.63,8.68,7.05,19.79,10.28,30.67,12.86,13.07,3.1,26.87,5.51,39.8,1.85,10.46-2.96,19.43-9.63,27.87-16.48,3.7-3,7.4-6.12,10.02-10.09,3.01-4.57,4.41-10.03,5.07-15.46,2.63-21.86-6.98-44.79-24.41-58.23s-40.84-14.17-58.6-8.04Z"/>
    <path class="cls-2" d="M2930.53,293.41c-7.8,1.08-16.02,2.33-22.18,7.23-3.07,2.44-5.43,5.65-7.59,8.93-6.29,9.53-11.32,20.19-12.45,31.56-1.13,11.36,2.05,23.52,10.19,31.52,7.15,7.03,17.15,10.18,26.83,12.79,10.01,2.71,20.82,5.06,30.56,1.51,15.95-5.82,22.67-25.39,21.32-42.32-.98-12.27-5.24-24.48-13.31-33.77-8.07-9.29-20.17-15.35-33.37-17.44Z"/>
    <path class="cls-8" d="M2863.88,408.05c-.41,3.5-.1,7.6,2.73,9.69,1.43,1.06,3.28,1.4,5.06,1.44,4.16.09,8.39-1.38,11.43-4.22s4.8-7.09,4.4-11.23c2.28,3.23,6.12,5.31,10.07,5.45s7.93-1.67,10.43-4.73c1-1.22,1.78-2.67,1.96-4.23.2-1.7-.33-3.47-1.43-4.77"/>
    <path class="cls-4" d="M2878.03,417.71c1.98,5.55.48,11.74-1.82,17.16-2.3,5.42-5.4,10.57-6.74,16.31-1.44,6.13-.72,12.83,2.43,18.28s8.8,9.51,15.05,10.29c9.93,1.23,19.28-5.69,24.71-14.09,11.46-17.7,8.93-43.21-5.8-58.31-6.17,3.09-14.35,1.37-18.76-3.94.43,5.94-3.26,11.96-9.07,14.29Z"/>
  </g>
  <g id="Layer_9" data-name="Layer 9">
    <path class="cls-13" d="M2772.3,208.85c-10.69,1.47-19.74,4.48-25.41,13.66-23.02,37.25-30.44,60.74-44.02,102.37-4.69,14.38-10.21,48.83-11.79,63.87-4.64,44.31,16.17,96.96,36.61,136.55,11.17,21.65,16.72,41.05,44.61,60.65-20.95,2.63-43.09.64-55.96-16.11-12.86-16.75-19.5-37.32-25.9-57.44,15.05,33.41,24.85,69.17,28.94,105.58,1.54,13.77,2.31,27.81,6.84,40.91,4.52,13.1,13.55,25.47,26.62,30.11-23.6-.69-45.42-15.04-59.1-34.28-13.68-19.24-20.02-42.85-22.46-66.33-9.22,25.46-5.45,55.26,9.83,77.61-11.9-18.22-24.23-37.76-24.48-59.52-.13-10.92,2.84-21.62,4.11-32.47,6.66-57-33.31-109.18-39.39-166.25-6.56-61.61,26.66-119.73,59.14-172.49,13.06-21.21,29.26-44.48,53.92-48.03,10.91-1.57,21.95,1.1,31.35,3.52,23.35,5.42,46.21,16.82,54.33,39.37-13.5-14.9-23.1-19.04-47.78-21.29Z"/>
    <path class="cls-13" d="M2831.13,209.55c4.63-6.08,9.79-9.43,19.25-8.88,5.72.33,11.15,2.65,15.53,6.36,11.48,9.73,22.97,19.46,34.45,29.2,3.88,3.29,8.1,6.14,12.65,8.41,7.77,3.87,30.55,20.98,34.96,26.48,31.45,39.33,38.75,75.4,40.85,125.71,9.67-23.25,12.58-49.27,8.27-74.08,4.91,10.9,7.27,22.95,6.82,34.89,10.29-32.07-4.34-66.49-20.85-95.85-14.81-26.35-31.67-52.01-54.13-72.24s-51.14-34.76-81.35-35.59c-8.52-.23-17.56.79-24.4,5.89-6.27,4.67-9.82,12.12-12.22,19.56-6.04,18.71-3.96,36.07,9.13,50.74,0,0,1.77-3.78,3.5-9.31,1.52-4.87,4.45-7.21,7.54-11.27Z"/>
  </g>
  <g id="Layer_12" data-name="Layer 12">
    <path class="cls-9" d="M2780.58,443.23c15.25-1.08,29.39-10.89,36.51-24.42,7.12-13.53,7.3-30.3,1.28-44.36-1.83-4.28-4.23-8.36-7.47-11.7-5.86-6.06-14.04-9.33-22.23-11.35-11.74-2.9-24.71-3.45-35.39,2.22-10.68,5.68-17.85,19.01-13.52,30.3,1.7,4.43,4.91,8.1,8.26,11.46,5.07,5.08,11.17,9.9,18.33,10.33,3.09.19,6.19-.48,9.12-1.5,7.17-2.51,14.02-8.08,14.94-15.63s-7.12-15.56-14.05-12.43"/>
    <path class="cls-3" d="M2938.59,389.89c-15.98,1.03-32.08-9-38.21-23.79-6.13-14.8-1.84-33.27,10.19-43.84,5.95-5.23,13.39-8.52,21.03-10.6,5.06-1.38,10.58-2.22,15.45-.29,9.72,3.86,12.25,16.27,12.75,26.72.22,4.45.23,9.24-2.26,12.94-3.4,5.03-10.37,6.32-16.38,5.44-4.4-.64-8.84-2.33-11.77-5.67s-3.96-8.59-1.56-12.34,8.53-4.76,11.4-1.36"/>
    <path class="cls-6" d="M2891.01,410.19c6.22,10.26,9.27,22.42,8.61,34.41"/>
  </g>
</svg>