<?xml version="1.0" encoding="UTF-8"?>
<svg id="Layer_20" data-name="Layer 20" xmlns="http://www.w3.org/2000/svg" viewBox="0 0 160.4 160.4">
  <defs>
    <style>
      .cls-1 {
        font-size: 27px;
      }

      .cls-1, .cls-2, .cls-3, .cls-4, .cls-5 {
        stroke-miterlimit: 10;
      }

      .cls-1, .cls-2, .cls-4 {
        fill: #ee93be;
        stroke-width: .75px;
      }

      .cls-1, .cls-3, .cls-4 {
        stroke: #fcc5b0;
      }

      .cls-1, .cls-4 {
        font-family: GlowwormMN-HighlightComp, 'Glowworm MN';
        font-weight: 300;
      }

      .cls-6 {
        fill: #c7bbaf;
      }

      .cls-7 {
        fill: #fb93ae;
      }

      .cls-2, .cls-5 {
        stroke: #ee93be;
      }

      .cls-3, .cls-5 {
        fill: none;
      }

      .cls-4 {
        font-size: 30px;
      }

      .cls-8 {
        fill: #fcc5b0;
      }
    </style>
  </defs>
  <path class="cls-8" d="M60.78,58.57c14.8-8.55,29.87-2.18,31.97-1.24,16.68,7.4,28.05,27.6,23.68,39.81-7.43,20.79-62.88,25.27-73.41,4.98-6.09-11.74,1.57-34.2,17.76-43.55Z"/>
  <path class="cls-8" d="M69.75,57.32c-6.46-6.52-13.95-12.01-22.11-16.21-.7-.36-1.47-.72-2.23-.53-.98.24-1.52,1.27-1.92,2.2-6.3,14.86-6.69,32.13-1.07,47.25"/>
  <path class="cls-8" d="M90.41,60.48c5.18-7.91,12.54-14.37,21.06-18.47.48-.23,1.02-.46,1.52-.28.39.14.66.49.88.84,1.79,2.77,2.38,6.12,2.76,9.39,1.46,12.3.63,24.86-2.46,36.86"/>
  <g>
    <path class="cls-8" d="M42.66,86.19c-2.33,2.8-6.77,3.85-10.24,2.42-1.67,4.24.54,9.49,4.86,11.52-2.19.9-4.8.84-6.93-.16,1.4,5.1,9.58,9.23,15.15,10.01,18.94,2.67,20.49,2.95,42.55,2.21"/>
    <path class="cls-8" d="M114.74,82c2.83,2.94,8.33,3.11,11.36.35-.57,4.2-2.83,8.18-6.24,10.97,2.39-.32,4.7-1.15,6.7-2.41-4.89,9.42-13.42,15.29-26.71,19.07-18.12,5.16-36.96,2.48-39.4,1.47s-10.3-2.02-11.03-4.42"/>
  </g>
  <path class="cls-2" d="M76.17,84.7c-.79.98-2.37,1.24-3.55,3.73-.9,1.89-.79,5.54,1.18,7.47,1.38,1.35,3.29,2.53,4.74,2.49,1.23-.04,4.54-.14,5.92-2.49.88-1.5,1.09-3.37,0-6.22-2.37-6.22-.55-2.94-1.18-3.73-2.06-2.56-4.93-3.93-7.1-1.24Z"/>
  <path class="cls-7" d="M46.98,80.88c1.48,2.56,4.68,3.59,6.85,4.29,1.31.42,3.38,1.07,6.08.81.58-.05,3.63-.38,6.52-2.5.8-.59,4.12-3.03,4.68-7.25.56-4.21-1.79-8.97-5.96-10.93-6.41-3.01-14.05,2.03-16.98,6.73-.57.91-3.27,5.24-1.18,8.85Z"/>
  <path class="cls-6" d="M92.16,66.91c-.6.41-2.14,1.57-2.98,3.71-1.47,3.73.31,7.46.61,8.09,2.96,6.19,12.28,9.38,17.81,5.63.46-.31,3.54-2.47,3.89-6.1.51-5.34-5.34-9.48-8.44-10.98-1.15-.55-6.65-3.21-10.89-.34Z"/>
  <path class="cls-5" d="M72.62,82.21c-.11.3-.62,1.72,0,2.49.89,1.1,3.41.06,3.55,0,1.32-.56,1.47-1.24,2.37-1.24s1.03.7,2.37,1.24c.48.2,2.28.93,3.55,0,.98-.71,1.15-2.04,1.18-2.49"/>
  <path class="cls-3" d="M51.99,72.11c1.68-1.25,3.81-1.99,6-2.09,1.99-.09,4.19.45,5.38,1.93,1.09,1.36,1.1,3.17.89,4.82-.12.95-.31,1.92-.88,2.71-1.05,1.48-3.14,2.02-5.07,2.25-1.72.21-3.65.22-5.02-.79-1.4-1.04-1.79-2.95-1.17-4.47.62-1.51,2.08-2.63,3.71-3.25,1.11-.42,2.6-.55,3.35.33.5.58.47,1.39.35,2.11-.1.6-.26,1.21-.69,1.67s-1.2.69-1.78.38"/>
  <path class="cls-3" d="M78.76,85.29c-.38,2.09-.47,4.23-.28,6.35"/>
  <path class="cls-3" d="M104.48,84.87c1.44-1.08,1.85-3.19,1.77-5.08-.22-4.81-3.39-9.57-7.8-10.61-1.76-.41-3.88-.09-4.86,1.52-.37.6-.53,1.31-.6,2.03-.15,1.64.24,3.36,1.18,4.67s2.46,2.18,4,2.13c1.29-.04,2.69-.93,2.78-2.31.03-.5-.11-.99-.3-1.45-.4-.96-1.12-1.87-2.09-2.07-.97-.2-2.1.64-1.97,1.68"/>
  <path class="cls-5" d="M14.6,90.38c-2.28-19.7,3.82-40.69,16.18-55.67-.84,3.04-1,6.29-.46,9.36-7.96,12.36-11.72,27.87-10.35,42.68.09.98.45,2.21-5.38,3.63Z"/>
  <path class="cls-5" d="M9.75,93.19c4.73-2.12,9.41-4.39,14.04-6.78.81.37.91,1.71.41,2.54s-1.37,1.29-2.19,1.7c-2.82,1.41-5.63,2.81-8.45,4.22-.7.35-1.49.71-2.21.43s-1.03-1.54-1.61-2.11Z"/>
  <path class="cls-5" d="M15.13,94.24c1.44,6.22,3.93,12.11,7.3,17.29.36.55.75,1.11,1.3,1.4.76.39,1.7.18,2.44-.3s1.33-1.22,1.89-1.94c-1.12-.88-1.81-2.27-2.43-3.63-2.26-4.94-4.11-10.11-5.52-15.45-2,.61-3.93,1.57-4.99,2.64Z"/>
  <path class="cls-5" d="M18.68,97.95c-.1-.18-.21-.36-.36-.48s-.38-.17-.54-.05c-.25.16-.25.59-.08.83s.46.35.73.44c.2.07.41.14.63.1.33-.05.6-.34.73-.67s.14-.71.1-1.07c-.02-.15-.07-.32-.19-.35-.07-.02-.13,0-.2.04-.41.21-.65.76-.81,1.21Z"/>
  <path class="cls-5" d="M20.57,103.18l-.47-.34c-.05-.04-.1-.07-.17-.08-.11,0-.2.13-.21.25s.06.24.14.33c.29.33.75.41,1.17.42.07,0,.15,0,.21-.04.07-.04.11-.12.14-.2.14-.32.2-.67.19-1.01,0-.14-.02-.3-.1-.41s-.23-.17-.35-.09c-.09.06-.13.18-.15.29-.07.3-.1.61-.41.88Z"/>
  <path class="cls-5" d="M22.82,107.46c-.16-.07-.27-.23-.41-.34s-.34-.19-.48-.06c-.09.08-.12.21-.12.34,0,.4.25.75.56.94s.67.27,1.02.33c.21-.39.37-.81.49-1.24.07-.27.13-.56.03-.81s-.42-.4-.61-.22c-.08.07-.13.19-.16.3-.08.29-.07.61-.32.77Z"/>
  <path class="cls-5" d="M26.51,44.77c-7.43,13.67-10.75,29.91-9.32,45.5"/>
  <path class="cls-5" d="M145.4,90.5c2.28-19.7-3.82-40.69-16.18-55.67.84,3.04,1,6.29.46,9.36,7.96,12.36,11.72,27.87,10.35,42.68-.09.98-.45,2.21,5.38,3.63Z"/>
  <path class="cls-5" d="M150.25,93.31c-4.73-2.12-9.41-4.39-14.04-6.78-.81.37-.91,1.71-.41,2.54s1.37,1.29,2.19,1.7c2.82,1.41,5.63,2.81,8.45,4.22.7.35,1.49.71,2.21.43s1.03-1.54,1.61-2.11Z"/>
  <path class="cls-5" d="M144.87,94.36c-1.44,6.22-3.93,12.11-7.3,17.29-.36.55-.75,1.11-1.3,1.4-.76.39-1.7.18-2.44-.3s-1.33-1.22-1.89-1.94c1.12-.88,1.81-2.27,2.43-3.63,2.26-4.94,4.11-10.11,5.52-15.45,2,.61,3.93,1.57,4.99,2.64Z"/>
  <path class="cls-5" d="M141.32,98.07c.1-.18.21-.36.36-.48s.38-.17.54-.05c.25.16.25.59.08.83s-.46.35-.73.44c-.2.07-.41.14-.63.1-.33-.05-.6-.34-.73-.67s-.14-.71-.1-1.07c.02-.15.07-.32.19-.35.07-.02.13,0,.2.04.41.21.65.76.81,1.21Z"/>
  <path class="cls-5" d="M139.43,103.3l.47-.34c.05-.04.1-.07.17-.08.11,0,.2.13.21.25s-.06.24-.14.33c-.29.33-.75.41-1.17.42-.07,0-.15,0-.21-.04-.07-.04-.11-.12-.14-.2-.14-.32-.2-.67-.19-1.01,0-.14.02-.3.1-.41s.23-.17.35-.09c.09.06.13.18.15.29.07.3.1.61.41.88Z"/>
  <path class="cls-5" d="M137.18,107.58c.16-.07.27-.23.41-.34s.34-.19.48-.06c.09.08.12.21.12.34,0,.4-.25.75-.56.94s-.67.27-1.02.33c-.21-.39-.37-.81-.49-1.24-.07-.27-.13-.56-.03-.81s.42-.4.61-.22c.08.07.13.19.16.3.08.29.07.61.32.77Z"/>
  <path class="cls-5" d="M133.49,44.89c7.43,13.67,10.75,29.91,9.32,45.5"/>
  <text class="cls-4" transform="translate(38.52 44.72) rotate(-40.34)"><tspan x="0" y="0">B</tspan></text>
  <text class="cls-4" transform="translate(47.21 36.96) rotate(-27.34)"><tspan x="0" y="0">U</tspan></text>
  <text class="cls-4" transform="translate(57.92 31.11) rotate(-13.89)"><tspan x="0" y="0">D</tspan></text>
  <text class="cls-4" transform="translate(69.85 27.96) rotate(-.93)"><tspan x="0" y="0">D</tspan></text>
  <text class="cls-4" transform="translate(82.31 27.74) rotate(11.39)"><tspan x="0" y="0">E</tspan></text>
  <text class="cls-4" transform="translate(91.69 29.31) rotate(23.01)"><tspan x="0" y="0">R</tspan></text>
  <text class="cls-4" transform="translate(102.71 34.19) rotate(32.1)"><tspan x="0" y="0">’</tspan></text>
  <text class="cls-4" transform="translate(106.75 36.27) rotate(40.86)"><tspan x="0" y="0">S</tspan></text>
  <text class="cls-1" transform="translate(17.82 121.1) rotate(49.55)"><tspan x="0" y="0">O</tspan></text>
  <text class="cls-1" transform="translate(27.85 132.54) rotate(37.48)"><tspan x="0" y="0">D</tspan></text>
  <text class="cls-1" transform="translate(39.89 141.52) rotate(25.42)"><tspan x="0" y="0">D</tspan></text>
  <text class="cls-1" transform="translate(53.49 147.7) rotate(13.89)"><tspan x="0" y="0">S</tspan></text>
  <text class="cls-1" transform="translate(66.16 150.51) rotate(6.2)"><tspan x="0" y="0"> </tspan></text>
  <text class="cls-1" transform="translate(72.42 151.48) rotate(-2.86)"><tspan x="0" y="0">&amp;</tspan></text>
  <text class="cls-1" transform="translate(88.9 150.13) rotate(-12.04)"><tspan x="0" y="0"> </tspan></text>
  <text class="cls-1" transform="translate(94.79 148.98) rotate(-19.09)"><tspan x="0" y="0">E</tspan></text>
  <text class="cls-1" transform="translate(106.22 145.01) rotate(-30.16)"><tspan x="0" y="0">N</tspan></text>
  <text class="cls-1" transform="translate(119.59 136.96) rotate(-42.44)"><tspan x="0" y="0">D</tspan></text>
  <text class="cls-1" transform="translate(130.41 126.73) rotate(-53.81)"><tspan x="0" y="0">S</tspan></text>
</svg>