<?xml version="1.0" encoding="UTF-8"?>
<svg id="Layer_20" data-name="Layer 20" xmlns="http://www.w3.org/2000/svg" viewBox="0 0 160.4 160.4">
  <defs>
    <style>
      .cls-1 {
        fill: #c7bbaf;
      }

      .cls-2 {
        fill: #fb93ae;
      }

      .cls-3, .cls-4, .cls-5, .cls-6 {
        stroke-miterlimit: 10;
      }

      .cls-3, .cls-5 {
        stroke: #ee93be;
      }

      .cls-3, .cls-6 {
        fill: #ee93be;
        stroke-width: .75px;
      }

      .cls-7, .cls-4, .cls-5 {
        fill: none;
      }

      .cls-4, .cls-6 {
        stroke: #fcc5b0;
      }

      .cls-8 {
        fill: #fcc5b0;
      }
    </style>
  </defs>
  <path class="cls-8" d="M60.78,58.57c14.8-8.55,29.87-2.18,31.97-1.24,16.68,7.4,28.05,27.6,23.68,39.81-7.43,20.79-62.88,25.27-73.41,4.98-6.09-11.74,1.57-34.2,17.76-43.55Z"/>
  <path class="cls-8" d="M69.75,57.32c-6.46-6.52-13.95-12.01-22.11-16.21-.7-.36-1.47-.72-2.23-.53-.98.24-1.52,1.27-1.92,2.2-6.3,14.86-6.69,32.13-1.07,47.25"/>
  <path class="cls-8" d="M90.41,60.48c5.18-7.91,12.54-14.37,21.06-18.47.48-.23,1.02-.46,1.52-.28.39.14.66.49.88.84,1.79,2.77,2.38,6.12,2.76,9.39,1.46,12.3.63,24.86-2.46,36.86"/>
  <g>
    <path class="cls-8" d="M42.66,86.19c-2.33,2.8-6.77,3.85-10.24,2.42-1.67,4.24.54,9.49,4.86,11.52-2.19.9-4.8.84-6.93-.16,1.4,5.1,9.58,9.23,15.15,10.01,18.94,2.67,20.49,2.95,42.55,2.21"/>
    <path class="cls-8" d="M114.74,82c2.83,2.94,8.33,3.11,11.36.35-.57,4.2-2.83,8.18-6.24,10.97,2.39-.32,4.7-1.15,6.7-2.41-4.89,9.42-13.42,15.29-26.71,19.07-18.12,5.16-36.96,2.48-39.4,1.47s-10.3-2.02-11.03-4.42"/>
  </g>
  <path class="cls-3" d="M76.17,84.7c-.79.98-2.37,1.24-3.55,3.73-.9,1.89-.79,5.54,1.18,7.47,1.38,1.35,3.29,2.53,4.74,2.49,1.23-.04,4.54-.14,5.92-2.49.88-1.5,1.09-3.37,0-6.22-2.37-6.22-.55-2.94-1.18-3.73-2.06-2.56-4.93-3.93-7.1-1.24Z"/>
  <path class="cls-2" d="M46.98,80.88c1.48,2.56,4.68,3.59,6.85,4.29,1.31.42,3.38,1.07,6.08.81.58-.05,3.63-.38,6.52-2.5.8-.59,4.12-3.03,4.68-7.25.56-4.21-1.79-8.97-5.96-10.93-6.41-3.01-14.05,2.03-16.98,6.73-.57.91-3.27,5.24-1.18,8.85Z"/>
  <path class="cls-1" d="M92.16,66.91c-.6.41-2.14,1.57-2.98,3.71-1.47,3.73.31,7.46.61,8.09,2.96,6.19,12.28,9.38,17.81,5.63.46-.31,3.54-2.47,3.89-6.1.51-5.34-5.34-9.48-8.44-10.98-1.15-.55-6.65-3.21-10.89-.34Z"/>
  <path class="cls-5" d="M72.62,82.21c-.11.3-.62,1.72,0,2.49.89,1.1,3.41.06,3.55,0,1.32-.56,1.47-1.24,2.37-1.24s1.03.7,2.37,1.24c.48.2,2.28.93,3.55,0,.98-.71,1.15-2.04,1.18-2.49"/>
  <path class="cls-4" d="M51.99,72.11c1.68-1.25,3.81-1.99,6-2.09,1.99-.09,4.19.45,5.38,1.93,1.09,1.36,1.1,3.17.89,4.82-.12.95-.31,1.92-.88,2.71-1.05,1.48-3.14,2.02-5.07,2.25-1.72.21-3.65.22-5.02-.79-1.4-1.04-1.79-2.95-1.17-4.47.62-1.51,2.08-2.63,3.71-3.25,1.11-.42,2.6-.55,3.35.33.5.58.47,1.39.35,2.11-.1.6-.26,1.21-.69,1.67s-1.2.69-1.78.38"/>
  <path class="cls-4" d="M78.76,85.29c-.38,2.09-.47,4.23-.28,6.35"/>
  <path class="cls-4" d="M104.48,84.87c1.44-1.08,1.85-3.19,1.77-5.08-.22-4.81-3.39-9.57-7.8-10.61-1.76-.41-3.88-.09-4.86,1.52-.37.6-.53,1.31-.6,2.03-.15,1.64.24,3.36,1.18,4.67s2.46,2.18,4,2.13c1.29-.04,2.69-.93,2.78-2.31.03-.5-.11-.99-.3-1.45-.4-.96-1.12-1.87-2.09-2.07-.97-.2-2.1.64-1.97,1.68"/>
  <path class="cls-5" d="M14.6,90.38c-2.28-19.7,3.82-40.69,16.18-55.67-.84,3.04-1,6.29-.46,9.36-7.96,12.36-11.72,27.87-10.35,42.68.09.98.45,2.21-5.38,3.63Z"/>
  <path class="cls-5" d="M9.75,93.19c4.73-2.12,9.41-4.39,14.04-6.78.81.37.91,1.71.41,2.54s-1.37,1.29-2.19,1.7c-2.82,1.41-5.63,2.81-8.45,4.22-.7.35-1.49.71-2.21.43s-1.03-1.54-1.61-2.11Z"/>
  <path class="cls-5" d="M15.13,94.24c1.44,6.22,3.93,12.11,7.3,17.29.36.55.75,1.11,1.3,1.4.76.39,1.7.18,2.44-.3s1.33-1.22,1.89-1.94c-1.12-.88-1.81-2.27-2.43-3.63-2.26-4.94-4.11-10.11-5.52-15.45-2,.61-3.93,1.57-4.99,2.64Z"/>
  <path class="cls-5" d="M18.68,97.95c-.1-.18-.21-.36-.36-.48s-.38-.17-.54-.05c-.25.16-.25.59-.08.83s.46.35.73.44c.2.07.41.14.63.1.33-.05.6-.34.73-.67s.14-.71.1-1.07c-.02-.15-.07-.32-.19-.35-.07-.02-.13,0-.2.04-.41.21-.65.76-.81,1.21Z"/>
  <path class="cls-5" d="M20.57,103.18l-.47-.34c-.05-.04-.1-.07-.17-.08-.11,0-.2.13-.21.25s.06.24.14.33c.29.33.75.41,1.17.42.07,0,.15,0,.21-.04.07-.04.11-.12.14-.2.14-.32.2-.67.19-1.01,0-.14-.02-.3-.1-.41s-.23-.17-.35-.09c-.09.06-.13.18-.15.29-.07.3-.1.61-.41.88Z"/>
  <path class="cls-5" d="M22.82,107.46c-.16-.07-.27-.23-.41-.34s-.34-.19-.48-.06c-.09.08-.12.21-.12.34,0,.4.25.75.56.94s.67.27,1.02.33c.21-.39.37-.81.49-1.24.07-.27.13-.56.03-.81s-.42-.4-.61-.22c-.08.07-.13.19-.16.3-.08.29-.07.61-.32.77Z"/>
  <path class="cls-5" d="M26.51,44.77c-7.43,13.67-10.75,29.91-9.32,45.5"/>
  <path class="cls-5" d="M145.4,90.5c2.28-19.7-3.82-40.69-16.18-55.67.84,3.04,1,6.29.46,9.36,7.96,12.36,11.72,27.87,10.35,42.68-.09.98-.45,2.21,5.38,3.63Z"/>
  <path class="cls-5" d="M150.25,93.31c-4.73-2.12-9.41-4.39-14.04-6.78-.81.37-.91,1.71-.41,2.54s1.37,1.29,2.19,1.7c2.82,1.41,5.63,2.81,8.45,4.22.7.35,1.49.71,2.21.43s1.03-1.54,1.61-2.11Z"/>
  <path class="cls-5" d="M144.87,94.36c-1.44,6.22-3.93,12.11-7.3,17.29-.36.55-.75,1.11-1.3,1.4-.76.39-1.7.18-2.44-.3s-1.33-1.22-1.89-1.94c1.12-.88,1.81-2.27,2.43-3.63,2.26-4.94,4.11-10.11,5.52-15.45,2,.61,3.93,1.57,4.99,2.64Z"/>
  <path class="cls-5" d="M141.32,98.07c.1-.18.21-.36.36-.48s.38-.17.54-.05c.25.16.25.59.08.83s-.46.35-.73.44c-.2.07-.41.14-.63.1-.33-.05-.6-.34-.73-.67s-.14-.71-.1-1.07c.02-.15.07-.32.19-.35.07-.02.13,0,.2.04.41.21.65.76.81,1.21Z"/>
  <path class="cls-5" d="M139.43,103.3l.47-.34c.05-.04.1-.07.17-.08.11,0,.2.13.21.25s-.06.24-.14.33c-.29.33-.75.41-1.17.42-.07,0-.15,0-.21-.04-.07-.04-.11-.12-.14-.2-.14-.32-.2-.67-.19-1.01,0-.14.02-.3.1-.41s.23-.17.35-.09c.09.06.13.18.15.29.07.3.1.61.41.88Z"/>
  <path class="cls-5" d="M137.18,107.58c.16-.07.27-.23.41-.34s.34-.19.48-.06c.09.08.12.21.12.34,0,.4-.25.75-.56.94s-.67.27-1.02.33c-.21-.39-.37-.81-.49-1.24-.07-.27-.13-.56-.03-.81s.42-.4.61-.22c.08.07.13.19.16.3.08.29.07.61.32.77Z"/>
  <path class="cls-5" d="M133.49,44.89c7.43,13.67,10.75,29.91,9.32,45.5"/>
  <g>
    <circle class="cls-7" cx="77.57" cy="80.05" r="62.23"/>
    <path class="cls-6" d="M41.1,42.52c-1.03.87-2.13.87-2.93-.07l-10.43-12.27c-.8-.94-.64-2.05.39-2.93l2.67-2.27c2.06-1.75,5.55-1.76,7.63.68,1.65,1.94,1.26,4.12,1.26,4.12,0,0,3.01-.59,5.14,1.93,2.16,2.54,1.85,6.07-.89,8.4l-2.83,2.41ZM28.26,29.54c.27-.23.04-.55.16-.97.03-.1.16-.37.04-.51-.14-.16-.35-.18-.51-.04-.3.25-.47,1.03-.14,1.42.1.11.28.24.44.1ZM34.63,31.52c.1.11.19.08.25.02l.69-.58c.73-.62.6-1.57.09-2.16-.85-1.01-1.83-1-2.5-.44l-.57.49c-.09.08-.1.16-.02.25l2.06,2.42ZM36.8,31.1c.23-.19.6-1.14.25-1.55-.1-.11-.33-.15-.47-.04-.23.19.04.32-.23.98-.05.12-.18.35-.02.53.12.14.37.16.46.08ZM37.57,34.7c-.09.08-.1.16-.04.23l2.47,2.9c.1.11.19.08.25.02l1.05-.89c.75-.64.76-1.71.08-2.5-.82-.96-2.18-1.14-3.03-.42l-.78.66ZM42.58,36.94c.23-.19.59-1.53.24-1.94-.1-.11-.33-.15-.47-.04-.27.23.05.71-.22,1.37-.05.12-.18.35-.02.53.12.14.37.16.46.08Z"/>
    <path class="cls-6" d="M56.27,25.49c1.54,2.98.37,6.66-2.61,8.21-2.98,1.54-6.66.37-8.21-2.61l-5.52-10.68c-.56-1.09-.16-2.14,1.04-2.76,1.2-.62,2.29-.34,2.85.75l5.58,10.79c.43.83,1.48,1.16,2.3.73.83-.43,1.16-1.48.73-2.3l-5.58-10.79c-.56-1.09-.16-2.14,1.04-2.76,1.2-.62,2.29-.34,2.85.75l5.53,10.68ZM40.58,19.89c.32-.17.17-.53.38-.9.05-.09.24-.33.15-.48-.1-.19-.3-.25-.48-.15-.35.18-.69.89-.45,1.35.07.13.22.29.41.2ZM47.5,16.31c.32-.17.17-.53.38-.9.05-.09.24-.33.15-.48-.1-.19-.3-.25-.49-.15-.35.18-.69.89-.45,1.35.07.13.22.29.41.2ZM53.05,30.23c.37-.19.88-1.37.71-1.69-.12-.24-.29-.29-.5-.18-.27.14-.22.49-.35.82-.13.34-.49.62-.34.92.11.21.26.24.47.13Z"/>
    <path class="cls-6" d="M54.75,13.29c-.3-1.19.34-2.12,1.65-2.45l3.99-.99c4.66-1.15,7.38,3.86,8.46,8.23.73,2.97,1.62,9.92-3.65,11.23l-3.99.99c-1.31.32-2.3-.17-2.59-1.37l-3.87-15.64ZM55.5,12.95c.35-.09.28-.47.58-.79.07-.08.31-.26.26-.44-.05-.2-.23-.31-.44-.26-.38.09-.88.71-.75,1.21.04.15.14.34.35.28ZM59.83,14.32c-.15.04-.26.06-.26.19l2.74,11.07c.06.11.17.08.32.04l1.08-.27c2.16-.53,1.39-4.64.99-6.24-.46-1.86-1.63-5.59-3.79-5.06l-1.08.27ZM64.93,25.95c.41-.1,1.3-1.25,1.14-1.89-.04-.15-.22-.26-.39-.21-.23.06-.28.22-.34.36-.13.34-.29.72-.61,1.05-.1.09-.28.23-.23.43.05.2.26.31.44.26Z"/>
    <path class="cls-6" d="M70.76,9.88c-.02-1.23.81-1.99,2.16-2.02l4.11-.07c4.8-.08,6.33,5.42,6.4,9.92.05,3.06-.65,10.03-6.08,10.12l-4.11.07c-1.35.02-2.2-.68-2.22-1.91l-.26-16.11ZM71.57,9.72c.36,0,.38-.4.74-.64.09-.06.36-.19.35-.37,0-.21-.16-.36-.37-.35-.39,0-1.01.5-1,1.01,0,.15.07.36.28.36ZM75.47,12.03c-.15,0-.27,0-.3.12l.19,11.4c.03.12.15.12.3.12l1.11-.02c2.22-.04,2.39-4.21,2.37-5.86-.03-1.92-.33-5.82-2.55-5.78l-1.11.02ZM77.84,24.5c.42,0,1.54-.93,1.53-1.58,0-.15-.16-.3-.33-.29-.24,0-.33.16-.42.28-.21.3-.44.64-.83.88-.12.06-.33.16-.32.37s.19.36.37.35Z"/>
    <path class="cls-6" d="M87.05,10.24c.24-1.21,1.21-1.75,2.53-1.48l5.32,1.07c1.15.23,1.88,1.33,1.64,2.47-.23,1.15-1.33,1.87-2.47,1.64l-3.18-.64-.66,3.26,2.85.57c1.15.23,1.88,1.33,1.64,2.47-.23,1.15-1.33,1.88-2.47,1.64l-2.85-.57-.81,4.03,3.59.72c1.15.23,1.88,1.33,1.64,2.47-.23,1.15-1.33,1.87-2.47,1.64l-5.73-1.15c-1.32-.27-2-1.14-1.76-2.34l3.19-15.82ZM87.87,10.29c.35.07.46-.31.86-.47.1-.04.39-.11.42-.28.04-.21-.08-.38-.28-.42-.38-.08-1.09.27-1.2.77-.03.15-.01.36.19.41Z"/>
    <path class="cls-6" d="M109.03,21.42c-1.13,2.65-3.15,3.49-4.71,3.71l.6,6.42c.15,1.56-1.5,2.75-3.07,2.09-.77-.33-1.24-.92-1.3-1.69l-.62-7.76-2.35,5.52c-.48,1.13-1.54,1.47-2.78.94-1.24-.53-1.73-1.52-1.25-2.65l6.3-14.83c.48-1.13,1.55-1.49,2.79-.97l3.73,1.58c2.54,1.08,4.01,4.44,2.65,7.65ZM100.66,13.33c.33.14.51-.21.94-.29.11-.02.4-.02.47-.19.08-.19,0-.39-.19-.47-.36-.15-1.13.04-1.33.51-.06.14-.09.35.11.44ZM101.58,20.31c-.05.11-.02.19.09.24l1.19.5c.97.41,1.9-.1,2.33-1.1.47-1.1.08-2.18-.78-2.55l-1.19-.5c-.11-.05-.19-.02-.24.1l-1.41,3.31ZM103.38,21.76c-.08.19,0,.36.24.43.18.04.66.05,1.03-.12.33-.15.62-.39.72-.54.12-.21.12-.44-.1-.53-.11-.05-.23,0-.37.1-.19.15-.42.31-.69.39-.16.06-.39.06-.52.07s-.25.06-.31.19Z"/>
    <path class="cls-6" d="M114.38,18.53c.72-.64,1.68-.75,2.49-.24.96.61,1.25,1.85.64,2.81-.11.18-.23.31-.34.43l-2.58,2.24c-.67.61-1.68.75-2.49.24-1.04-.65-1.35-2.3-.39-3.15l2.67-2.33ZM114.78,18.74c-.16.25.02.47.18.5s.48-.2.82-.23c.23-.03.31-.09.36-.23.05-.14,0-.32-.2-.41-.22-.1-.98.09-1.16.37Z"/>
    <path class="cls-6" d="M120.2,39.57c-2.24,2.59-5.98,3.24-8.79.81-2.79-2.41-2.35-6.32-1.21-7.63.65-.75,2.01-1.04,2.96-.21.82.71.87,1.38.58,2.4-.25.89-.36,1.83.39,2.48.73.63,2,.66,2.77-.22,1.35-1.57.56-2.81-.38-4.42-1.36-2.33-1.65-4.6.55-7.14,1.79-2.06,5.4-2.35,7.72-.35.57.49,1.22,1.29,1.59,2.29.5,1.3.64,2.7-.14,3.6-.88,1.02-2.13.9-2.92.21-.54-.47-.69-.99-.71-1.56-.04-.55-.08-1.1-.44-1.41-.7-.61-1.75-.36-2.18.14-1.02,1.18.24,2.7.88,3.89,1.47,2.74,1.25,4.93-.65,7.13ZM112.35,32.54c-.22-.15-.91-.19-1.16.11-.1.11-.07.26.02.34.23.2.42.16.63.15.21-.02.41.08.59-.13.12-.14.08-.37-.08-.46ZM114.39,38.39c-.04.09-.07.26.05.36.45.39,1.96.35,2.35-.11.14-.16.18-.4,0-.55-.11-.1-.24-.09-.47,0-.17.05-.5.16-.84.19-.38.03-.95-.19-1.1.12ZM118.7,24.98c-.16.18-.31.36-.02.62.11.1.38-.03.48-.06.87-.32,1.78-.68,3.28-.17.46.16.56.09.76-.14.1-.11,0-.28-.11-.37-1.04-.9-3.9-.44-4.39.13Z"/>
  </g>
  <g>
    <circle class="cls-7" cx="76.36" cy="79.95" r="62.23"/>
    <path class="cls-6" d="M32.77,124.74c-1.52,1.3-2.84,2.21-3.71,2.63-2.71,1.32-5.34.72-6.97-1.18-1.63-1.91-1.8-4.6-.07-7.07.56-.8,1.67-1.96,3.19-3.25,1.52-1.3,2.84-2.21,3.71-2.63,2.71-1.32,5.34-.72,6.97,1.19,1.63,1.91,1.8,4.6.07,7.07-.56.8-1.67,1.96-3.19,3.25ZM27.64,118.72c-2.73,2.33-3.96,3.63-2.74,5.07,1.23,1.44,2.7.43,5.44-1.9,2.73-2.33,3.96-3.63,2.74-5.07-1.23-1.44-2.7-.43-5.44,1.9ZM24.91,125.09c.25.29,1.64.59,2.09.2.1-.09.1-.3,0-.42-.14-.17-.33-.14-.45-.11-.54.07-.81.01-1.16-.15-.11-.05-.28-.12-.42,0-.14.12-.16.35-.06.47ZM30.1,113.74c.09.1.34.07.42.03,1.66-.38,2.56.01,3.19.29.18.09.5.25.7.08.12-.11.23-.27.09-.43-.28-.33-1.27-.69-1.89-.76-.74-.08-2.1-.05-2.57.35-.08.07-.06.3.06.44Z"/>
    <path class="cls-6" d="M38.6,120.3c.67-.88,1.68-.95,2.65-.21l2.94,2.25c3.43,2.63,1.43,7.36-1.03,10.57-1.68,2.19-6.07,6.71-9.94,3.74l-2.94-2.25c-.96-.74-1.17-1.71-.5-2.59l8.82-11.5ZM40.72,124.45c-.11-.08-.19-.15-.28-.08l-6.25,8.14c-.04.1.04.17.15.25l.79.61c1.58,1.22,4.04-1.63,4.94-2.81,1.05-1.37,3.02-4.29,1.43-5.5l-.79-.61ZM35.41,134.56c.3.23,1.61.21,1.97-.26.08-.11.06-.3-.07-.39-.17-.13-.32-.07-.45-.04-.31.1-.67.2-1.08.16-.12-.02-.32-.07-.43.08-.12.15-.07.36.06.45ZM39.26,120.63c.26.2.49-.06.88-.04.1,0,.36.07.45-.06.12-.15.09-.34-.06-.45-.28-.21-.99-.22-1.27.15-.08.11-.15.29,0,.4Z"/>
    <path class="cls-6" d="M47.85,127.3c.48-1,1.45-1.29,2.55-.76l3.34,1.59c3.9,1.86,2.94,6.9,1.2,10.56-1.18,2.49-4.53,7.83-8.95,5.73l-3.34-1.59c-1.1-.52-1.5-1.43-1.03-2.43l6.23-13.09ZM50.8,130.92c-.12-.06-.22-.1-.29-.02l-4.41,9.27c-.02.11.08.16.2.21l.9.43c1.8.86,3.61-2.44,4.25-3.78.74-1.56,2.05-4.82.25-5.68l-.9-.43ZM47.72,141.92c.34.16,1.62-.13,1.87-.67.06-.12,0-.3-.15-.37-.19-.09-.33,0-.45.06-.29.16-.61.34-1.02.38-.12,0-.33,0-.41.17-.08.17,0,.36.15.43ZM48.57,127.49c.29.14.47-.17.85-.22.1-.01.36,0,.43-.15.08-.17.02-.35-.15-.43-.32-.15-1.01,0-1.21.41-.06.12-.09.32.08.4Z"/>
    <path class="cls-6" d="M65.62,144.86c-.74,2.99-3.47,5.04-6.72,4.23-3.22-.8-4.46-4.11-4.09-5.63.21-.87,1.19-1.65,2.29-1.38.94.23,1.26.76,1.44,1.69.16.82.46,1.62,1.33,1.83.84.21,1.88-.29,2.13-1.31.45-1.81-.69-2.48-2.11-3.39-2.04-1.31-3.2-3.02-2.48-5.95.59-2.39,3.38-4.09,6.05-3.43.66.16,1.51.54,2.21,1.19.93.84,1.62,1.9,1.36,2.95-.29,1.18-1.34,1.59-2.26,1.36-.63-.16-.96-.52-1.21-.97-.26-.42-.51-.85-.93-.95-.81-.2-1.55.42-1.69,1-.34,1.36,1.3,2.07,2.29,2.76,2.3,1.6,3.01,3.44,2.39,5.99ZM56.46,142.43c-.24-.03-.81.22-.89.56-.03.13.05.24.16.26.26.07.4-.04.56-.14s.36-.11.42-.34c.04-.16-.09-.33-.25-.34ZM58.46,133.77c-.05.21-.1.42.24.5.13.03.29-.18.37-.24.57-.61,1.15-1.27,2.56-1.48.43-.06.48-.16.55-.42.03-.13-.11-.22-.24-.25-1.21-.3-3.31,1.24-3.47,1.89ZM60.49,146.29c0,.08.05.24.18.27.52.13,1.71-.52,1.84-1.05.05-.18-.01-.39-.22-.44-.13-.03-.23.03-.38.18-.11.11-.33.33-.59.49-.29.18-.84.24-.83.55Z"/>
    <path class="cls-6" d="M82.92,149.55c-1.17.9-2.57,1.62-4.05,1.69-2.94.15-5.86-1.57-6.02-4.78-.12-2.35.95-3.67,2.79-5.22l-.06-.08c-.8-.91-1.44-1.87-1.52-3.3-.12-2.45,1.74-4.65,4.33-4.78,2.78-.14,4.8,1.98,4.91,4.21.08,1.56-.9,3.1-2.19,4.3l2,2.22.53-.86c.28-.42.61-.73,1.21-.76.97-.05,2.11.62,2.17,1.86.03.59-.32,1.1-.62,1.6-.15.25-.38.59-.71,1.01l.74.8c.29.34.49.71.52,1.19.06,1.19-.76,2.15-1.89,2.2-.57.03-1.03-.03-1.43-.5l-.72-.8ZM73.83,144.92c.13,0,.18-.17.28-.37.62-1.19.72-1.2,1.47-1.91.08-.06.18-.23.17-.36s-.09-.27-.23-.26-.21.04-.37.15c-.23.2-.57.57-.77.82-.48.59-.88,1.26-.86,1.67,0,.13.15.26.31.25ZM74.89,137c.3-.01.28-.34.35-.53.09-.33.29-.72.52-1.03.23-.34.59-.62.91-.8.34-.18.42-.32.41-.45s-.1-.29-.26-.28c-.16,0-.48.16-.56.22-.34.23-.68.55-1,1-.3.42-.5.89-.61,1.25-.07.22-.18.66.25.64ZM78.66,147.52c.62-.03,1.23-.33,1.83-.74l-2.35-2.69c-.65.52-1.27,1.14-1.23,1.95.04.81.67,1.53,1.75,1.48ZM77.76,137.59c0,.19.1.4.27.58l.57.65c.39-.32.94-.7.91-1.26-.02-.46-.4-.87-.91-.85-.4.02-.87.39-.85.88ZM79.54,139.12c.11,0,.24-.09.39-.26s.18-.22.2-.33c.04-.22-.15-.34-.29-.34-.13,0-.23.2-.33.31-.15.17-.29.23-.28.34,0,.16.15.29.31.28Z"/>
    <path class="cls-6" d="M90.48,133.24c-.36-1.05.14-1.91,1.29-2.3l4.62-1.6c1-.34,2.06.17,2.4,1.17.34,1-.17,2.06-1.17,2.4l-2.76.95.98,2.83,2.47-.86c1-.34,2.06.17,2.4,1.17s-.17,2.06-1.17,2.4l-2.47.86,1.21,3.5,3.11-1.08c1-.34,2.06.17,2.4,1.17.34.99-.17,2.06-1.17,2.4l-4.97,1.72c-1.15.4-2.07.03-2.44-1.01l-4.75-13.73ZM91.13,132.9c.31-.11.22-.45.45-.76.06-.08.25-.26.2-.41-.06-.18-.23-.26-.41-.2-.33.12-.73.71-.58,1.14.04.13.16.29.34.23Z"/>
    <path class="cls-6" d="M111.57,137.12l-5.9-3.07,4.02,6.91c.56.96.23,1.9-.82,2.51-1.05.61-2.03.43-2.59-.53l-7.28-12.54c-.56-.96-.24-1.92.81-2.53.79-.46,1.51-.25,2.01.02l6.3,3.27-2.63-4.53c-.56-.96-.24-1.92.81-2.53,1.05-.61,2.04-.41,2.6.55l7.29,12.54c.56.96.23,1.9-.82,2.51-1.05.61-2.03.43-2.59-.53l-1.19-2.05ZM99.55,129.93c.28-.16.13-.48.3-.83.04-.09.2-.3.12-.44-.09-.16-.28-.21-.44-.12-.3.18-.58.83-.35,1.23.07.12.21.25.37.16ZM106.04,126.16c.28-.16.13-.48.3-.83.04-.09.2-.3.12-.44-.09-.16-.28-.21-.44-.12-.3.18-.58.83-.35,1.23.07.12.21.25.37.16Z"/>
    <path class="cls-6" d="M109.42,124.23c-.75-.82-.64-1.83.25-2.65l2.73-2.5c3.19-2.92,7.5-.12,10.23,2.87,1.86,2.03,5.55,7.15,1.94,10.45l-2.73,2.5c-.9.82-1.89.85-2.64.03l-9.78-10.7ZM109.86,123.64c.24-.22.02-.5.12-.87.02-.09.13-.34.02-.46-.13-.14-.32-.15-.46-.02-.26.24-.39.94-.08,1.28.09.1.26.2.4.08ZM113.87,122.87c-.1.09-.18.16-.13.26l6.92,7.57c.09.06.17-.01.27-.1l.74-.67c1.47-1.35-.9-4.26-1.9-5.36-1.17-1.28-3.69-3.72-5.17-2.37l-.74.67ZM122.91,129.86c.28-.25.49-1.54.09-1.98-.09-.1-.28-.11-.4,0-.16.15-.13.3-.12.43.04.33.08.69-.03,1.09-.04.11-.13.3,0,.44.13.14.34.13.46.02Z"/>
    <path class="cls-6" d="M132.39,114.43c2.48,1.82,3.34,5.12,1.37,7.83-1.96,2.68-5.5,2.57-6.76,1.65-.72-.53-1.08-1.73-.41-2.64.57-.78,1.18-.88,2.11-.69.82.16,1.67.19,2.2-.53.51-.7.45-1.85-.4-2.47-1.5-1.1-2.56-.3-3.93.67-1.99,1.39-4.01,1.82-6.45.03-1.98-1.45-2.5-4.67-.88-6.9.4-.54,1.07-1.19,1.94-1.59,1.13-.54,2.37-.77,3.24-.13.98.72.96,1.84.4,2.6-.38.52-.84.69-1.35.75-.49.08-.98.15-1.24.5-.49.68-.2,1.6.28,1.95,1.13.83,2.41-.41,3.43-1.07,2.35-1.52,4.33-1.48,6.44.07ZM119.42,116.84c.17.13.35.25.56-.03.08-.11-.05-.34-.09-.43-.35-.76-.74-1.55-.4-2.93.11-.42.04-.51-.18-.67-.11-.08-.25.02-.33.13-.73,1-.11,3.53.44,3.93ZM126.66,121.98c-.12.21-.1.83.18,1.04.11.08.24.04.3-.05.16-.22.11-.38.08-.57s.04-.37-.16-.52c-.13-.1-.33-.04-.41.1ZM131.76,119.72c.08.03.24.04.32-.07.32-.44.17-1.78-.27-2.1-.15-.11-.37-.14-.5.04-.08.11-.06.22.03.42.06.14.18.43.23.74.05.34-.1.87.19.97Z"/>
  </g>
</svg>