<?xml version="1.0" encoding="UTF-8"?>
<svg id="Layer_1" data-name="Layer 1" xmlns="http://www.w3.org/2000/svg" viewBox="0 0 486.72 547.39">
  <defs>
    <style>
      .cls-1 {
        fill: #fbc4ae;
      }

      .cls-2 {
        fill: #c7bbaf;
        stroke: #c7bbaf;
      }

      .cls-2, .cls-3, .cls-4, .cls-5, .cls-6, .cls-7, .cls-8, .cls-9, .cls-10, .cls-11, .cls-12, .cls-13 {
        stroke-miterlimit: 10;
      }

      .cls-2, .cls-3, .cls-4, .cls-5, .cls-7, .cls-8, .cls-9, .cls-10, .cls-11, .cls-12, .cls-13 {
        stroke-width: 3px;
      }

      .cls-3 {
        stroke-dasharray: 0 0 0 0 0 0;
      }

      .cls-3, .cls-6, .cls-8, .cls-9 {
        fill: none;
      }

      .cls-3, .cls-6, .cls-9 {
        stroke: #fbc5af;
      }

      .cls-4 {
        stroke: #ee94bd;
      }

      .cls-4, .cls-14, .cls-11, .cls-13 {
        fill: #ed93bd;
      }

      .cls-5 {
        fill: #fb93ad;
        stroke: #f29b80;
      }

      .cls-6 {
        stroke-width: 2px;
      }

      .cls-7 {
        fill: #dbcab8;
        stroke: #c8bbaf;
      }

      .cls-8 {
        stroke: #ed93bd;
      }

      .cls-15 {
        fill: #fbc5af;
      }

      .cls-10 {
        fill: #f5ac8d;
        stroke: #f1987d;
      }

      .cls-11 {
        stroke: #e987b4;
      }

      .cls-12 {
        fill: #fb93af;
        stroke: #fb93af;
      }

      .cls-13 {
        stroke: #e986b3;
      }

      .cls-16 {
        fill: #e986b3;
      }
    </style>
  </defs>
  <g>
    <path class="cls-11" d="M190.9,10.68c-19.59,5.44-39.19,10.88-58.78,16.33-8.57,2.38-17.31,4.84-24.71,9.77-9.83,6.56-16.41,16.88-22.7,26.89-9.98,15.89-20.06,32.01-25.6,49.93-8.68,28.08-5.7,58.95-15.77,86.57-3.87,10.61-9.57,20.44-14.58,30.57-7.58,15.34-13.59,31.42-18.88,47.69-7.07,21.74-12.77,45.95-3.69,66.93,8.13,18.77,26.32,30.83,43.58,41.81-7.06-4.54-11.59-12.09-15.08-19.72-17.25-37.79-13.41-84.42,9.77-118.88-8.17,30.73-16.36,63.22-7.94,93.88,3.61,13.16,10.19,25.45,12.73,38.86,1.88,9.94,1.48,20.15,2.48,30.21.99,10.06,3.63,20.45,10.46,27.91,6.83,7.45,18.77,10.93,27.41,5.67-11.73-3.14-18.18-16.62-17.44-28.73s6.91-23.14,12.92-33.68c.76,16.25,17.96,28.26,18.42,44.52.38,13.51-13.62,25.47-26.91,22.99,12.71,6.1,27.75,10.56,40.66,4.89,10.99-4.83,17.98-16.26,20.41-28.02s.94-23.94-.88-35.81"/>
    <path class="cls-11" d="M133.54,438.56c2.43,4.27,7.43,6.93,12.33,6.55-4.04-13.1,3.74-28.69,16.64-33.32-2.97-16.53,7.34-34.45,23.13-40.18,10.37-3.77,21.77-2.59,32.79-1.99,24.06,1.3,48.29-.45,71.92-5.18,4.26-.85,8.95-1.75,12.75.38,3.09,1.73,4.84,5.06,6.73,8.05,4.82,7.6,12.02,14.17,20.82,16.05,8.8,1.88,19.12-2.05,22.68-10.32-.34,2.7-3.57,4.6-6.1,3.58-3.66-8.98-3.6-19.42.17-28.36,7.67,3.68,16.52,4.82,24.87,3.21-7.28-1.62-12.63-9.38-11.53-16.76.11,6.71,4.43,13.17,10.59,15.84,6.16,2.67,13.83,1.4,18.8-3.1-5.83.84-9.21-6.3-10.62-12.02-2.96-11.95-5.93-23.9-8.89-35.85,6.41,6.54,16.91,7.54,25.66,4.84,8.75-2.69,16.19-8.44,23.4-14.08-8.07,4.27-18.63,3.28-25.76-2.43,9.96,3.08,21.25,1.5,29.98-4.2-14.68.7-26.07-12.05-35.09-23.65,6.98,8.25,20.36,10.12,29.33,4.09-10.25-.56-18.93-7.86-25.16-16.03-7.65-10.02-12.86-21.89-15.06-34.3-2.59-14.59-1.06-29.54-.88-44.35.54-43.91-11.14-87.91-33.4-125.77-6.66-11.33-14.4-22.29-24.76-30.39C291.99-2.17,254.17.23,220.22,4.04c-12.45,1.4-25.37,3.01-35.97,9.7"/>
  </g>
  <path class="cls-16" d="M193.91,314c-3.04,16.91,3.18,35.19,15.91,46.73,3.18-4.97,9.72-7.52,15.43-6.03,2.27.59,4.65,1.75,6.84.91-1.01-5.33,3.97-9.77,5.62-14.94,1.5-4.69.09-9.95-2.69-14.02-2.77-4.07-6.77-7.14-10.85-9.91-6.19-4.2-12.92-7.94-20.31-9.12-3.56-.57-8.81.12-9.94,6.38Z"/>
  <path class="cls-16" d="M263.1,351.75c3.81,10.33,11.83,18.72,21.14,24.59,9.31,5.86,19.9,9.4,30.55,12.16,6.46,1.67,13.12,3.09,19.76,2.47,6.65-.62,13.36-3.56,17.14-9.06-2.11.54-4.36-.73-5.57-2.54s-1.56-4.05-1.72-6.22c-.52-7.01.69-14.15,3.5-20.6-4.85-2.69-7.56-8.03-9.4-13.26-4-11.41-5.12-23.82-3.24-35.76.39-2.5.65-5.65-1.49-6.99-.76-.48-1.69-.6-2.59-.69-16.92-1.69-33.71,5.16-47.69,14.85-6.6,4.58-12.87,9.95-16.9,16.9-4.02,6.95-5.52,15.73-2.38,23.12.25.59,1.5.61-1.13,1.04Z"/>
  <path class="cls-14" d="M130.63,317.33c-6.59,23.22-4.81,48.72,4.93,70.8,2.48,5.61,5.53,11.45,4.71,17.53,2.7-3.18,4.47-7.03,5.96-10.92,9.32-24.44,8.03-51.47,12.11-77.31,1.85-11.72,4.77-24.02.68-35.16-2.27-6.16-8.71-12.12-14.75-9.55-3.15,1.33-5.02,4.55-6.52,7.62-6.81,13.98-10.54,29.45-7.12,36.98Z"/>
  <path class="cls-16" d="M209.19,46.12c-14.22,18.22-29.21,38.96-26.95,61.95,18.46-8.88,26.21-32.7,44.87-41.13,10.65-4.82,22.92-3.69,34.55-2.46,10.55,1.11,21.1,2.22,31.56,4.01,10.98,1.88,22.56,4.46,32.97.51-8.36-4.75-15.48-11.65-20.5-19.85-2.16-3.53-3.99-7.37-7.02-10.18-3.7-3.43-8.75-4.92-13.6-6.3-5.46-1.56-12.37-2.69-15.91,1.74-2.29,2.87-2.15,7.11-4.38,10.03-2.76,3.63-8.26,3.95-12.54,2.38-4.28-1.57-7.85-4.59-11.85-6.77-11.52-6.27-24.03-3.14-31.2,6.06Z"/>
  <path class="cls-10" d="M355.11,409.43c3.61-4.4,5.92-9.86,6.55-15.52.31-2.76.24-5.63,1.33-8.19.91-2.14,2.55-3.88,4.18-5.54,8.53-8.68,17.7-16.72,27.42-24.05,4.16-3.13,10.16-6.12,14.13-2.76,4.3,3.65,1.45,10.81-2.59,14.74-4.04,3.93-9.4,7.57-9.92,13.18,16.12-13.41,34.17-24.49,53.42-32.8,2.48-1.07,5.14-2.11,7.8-1.65,2.66.46,5.12,1.91,4.41,4.51-.39,1.44-1.57,3.69-2.76,4.6-11.99,9.12-22.05,13.15-31.16,20.69,25.25-16.41,38.56-26.17,38.56-26.17,0,0,4.75-2.87,10.03-5.81,3.47-1.93,7.09-.46,8.37,3.3,1.77,5.18-3.59,9.82-8.25,12.69-10.68,6.58-21.37,13.16-32.05,19.75,8.51-7.22,18.74-11.02,29.59-17.71,1.3-.8,1.31-1.68,2.83-1.6,4.23.21,7.5,6.97,4.36,9.8-6.35,5.72-12.8,9.04-16.58,10.94-11.66,5.86-16.4,8.64-28.07,14.5,7.14-5.96,17.6-7.66,26.26-4.27,1.22.48,2.56,1.26,2.71,2.56.13,1.14-.73,2.13-1.6,2.88-7.61,6.53-18.92,5.8-28.22,9.54-6.27,2.52-11.51,7.03-16.61,11.46-18.12,15.74-36.32,31.54-52,49.71-6.15,7.12-11.89,14.59-18.15,21.61-20.96,23.51-47.73,41.81-77.25,52.8-5.74,2.14-11.87,4.03-17.9,2.98-6.36-1.1-11.67-5.29-16.69-9.35-5.75-4.64-11.49-9.27-17.24-13.91,10.62-19.63,34.4-27.38,51.54-41.69,9.34-7.8,16.75-17.64,25.66-25.93,5.46-5.08,11.46-9.55,17.45-14.01,14.3-10.65,30.61-19.33,40.43-31.29Z"/>
  <path class="cls-10" d="M161.95,420.62c-3.4-12.71-.61-26.92,7.35-37.4,7.95-10.48,20.89-16.99,34.05-17.13,4.61-.05,9.23.63,13.8.04,13.59-1.76,23.99-21.08,21.13-34.48,9.04,4.2,21.55,5.51,31.51,5.26-1.02,4.01-4.55,13.52-4.01,17.62s3.04,8.22,7,9.42c7.29,2.21,14.42-6.1,21.89-4.59,2.13.43,4.02,1.63,5.83,2.84,8.86,5.92,17.26,12.53,25.11,19.75,4.3,3.95,8.74,8.85,8.43,14.68-.32,5.97-5.52,10.44-10.63,13.53-21.23,12.83-47.1,14.74-70.64,22.56-13.39,4.45-26.45,10.93-40.54,11.62-9.47.46-18.85-1.73-28-4.21-7.33-1.98-15.43-4.83-18.69-11.68-1.43-3-1.77-6.52-3.58-7.82Z"/>
  <path class="cls-10" d="M357.53,217.07c3.47,9.76,7.13,21.91,7.13,21.91,3.96,11.74-.22,24.25-4.58,35.85-6.49,17.27-33.33,47.59-50.27,56.36-14.2,7.35-30.25,10.24-46.12,8.29-40.07-4.93-76.83-26.13-106.31-53.7-10.9-10.19-21.19-21.65-26.46-35.61-2.18-5.77-3.43-12.28-1.24-18.05,2.19-5.77,8.81-10.14,14.62-8.06,3.33,1.19,5.69,4.11,8.02,6.77,12.42,14.2,29.16,24.58,47.4,29.4-7.3-9.2-12.19-20.3-14.03-31.89,6.68,17.15,21.45,30.94,39.01,36.43,8.15,2.55,16.74,3.38,25.28,3.66,8.72.29,17.5.01,26.08-1.59,30.92-5.79,55.83-27.95,81.48-49.76Z"/>
  <path class="cls-15" d="M230.49,62.93c-25.69,9.51-42.32,35.06-50.24,61.28-12.76,42.26-6.75,89.83,16.14,127.57,2.9,4.79,6.16,9.52,10.67,12.84,3.78,2.78,8.27,4.42,12.77,5.76,33.95,10.13,72.31,4.24,101.65-15.62,29.34-19.85,49.08-53.27,52.29-88.55,3.36-36.86-12.6-76.25-43.99-95.86-33.12-20.69-76.44-15.88-99.3-7.42Z"/>
  <path class="cls-7" d="M240.88,426.53c5.09,4.69,10.19,9.37,15.28,14.06,3.19,2.94,6.48,6.01,8.1,10.03,1.29,3.21,1.41,6.75,1.39,10.21-.06,10.16-1.19,20.31-3.36,30.23-.46,2.1-1.15,4.43-3.05,5.42-1.27.66-2.8.55-4.17.93-2.86.8-4.67,3.56-5.97,6.22-1.31,2.66-2.49,5.57-4.91,7.3s-6.52,1.43-7.58-1.34c-.19,3.82-2.92,7.39-6.56,8.58-3.64,1.18-7.95-.1-10.35-3.08,2.81,4.7-1.39,11.34-6.81,12.14-5.42.8-10.72-2.89-13.45-7.64-2.57,4.32-7.84,6.86-12.82,6.17-.8-.11-1.62-.31-2.25-.83-3.06-2.53,1.91-7.97-.26-11.3-1.38-2.12-4.49-1.74-7.02-1.78-5.8-.09-10.9-3.66-15.59-7.08-9.1-6.65-19.1-14.92-19.35-26.19-.23-10.26,7.87-18.75,10.48-28.68,2.02-7.66.69-15.88,2.63-23.56.32-1.26.79-2.59,1.86-3.33.68-.47,1.52-.63,2.33-.79,20.86-4,41.47-9.29,61.68-15.84,1.24-.4,2.51-.83,3.46-1.72,2.86-2.67,1.18-7.4-.69-10.83-5.46-10.04-11.15-19.95-17.01-29.96,3.43-2.67,6.94-5.39,11.05-6.8,4.11-1.41,9.01-1.29,12.42,1.39,2.23,1.75,3.59,4.37,4.81,6.93,3.11,6.51,5.78,13.22,8.01,20.08,2.09,6.45,4.6,13.94,11,16.19,5.23,1.84,11.17-.69,16.5.84,1.37.39,2.77,1.05,4.14.7,1.3-.33,2.2-1.47,3.09-2.47,3.89-4.37,9.42-7.25,15.23-7.91-4.86-9.4-16.67-18.17-18.6-28.57,5.35-5.7,17.88-2.32,22.16,4.22,4.28,6.54,10.53,13.31,10.86,21.13.09,2.21.3,4.62,1.8,6.25.72.78,1.66,1.3,2.59,1.8,3.69,2.01,7.38,4.02,11.07,6.03,2.96-4.11,6.46-7.83,10.37-11.04,6.09,4.04,12.17,8.08,18.26,12.11.93.62,1.92,1.32,2.24,2.38.42,1.4-.48,2.82-1.39,3.96-4.42,5.54-10.28,9.9-16.85,12.54-1.54-2.38-3.07-4.76-4.61-7.13,3.19,1.85,4.09,4.37,6.13,6.56-4.3,5.15-9.13,9.86-14.38,14.04-7.32,5.82-15.42,10.57-23.07,15.96-13.99,9.86-26.45,21.87-36.82,35.48"/>
  <path class="cls-7" d="M234.95,346.36c-2.04,3.27-2.91,2.62-2.47,6.45.27,2.33,2.42,3.91,4.38,5.19,2.38,1.56,4.77,3.13,7.4,4.21,7.02,2.91,14.95,2.11,22.5,1.27.69-.08,1.41-.17,1.97-.57,1.03-.74,1.13-2.22,1.04-3.49-.24-3.39-1.11-6.73-2.56-9.8-7.48,4.84-23.08.02-29.31-6.36-1.54-1.57-2.12,2.91-2.94,3.09Z"/>
  <path class="cls-5" d="M247.65,294.52c2.49,5.6,8.3,8.93,14.01,11.15,7.64,2.97,16.12,4.63,24.04,2.51,7.92-2.11,15.01-8.71,15.75-16.87-18.02-1.59-36.39,6.74-53.81,3.21Z"/>
  <path class="cls-1" d="M262.54,296.46c8.95,6.66,24.58,4.68,31.58-4.01-10.23.26-21.97,1.79-31.58,4.01Z"/>
  <path class="cls-12" d="M215.83,120.81c-12.7,4.39-24.12,13.65-28.95,26.19-4.83,12.54-1.92,28.26,8.51,36.73,5.84,4.74,13.3,6.91,20.62,8.65,8.78,2.09,18.06,3.7,26.75,1.25,7.03-1.99,13.06-6.48,18.73-11.08,2.48-2.02,4.97-4.11,6.73-6.78,2.02-3.07,2.97-6.74,3.41-10.4,1.77-14.69-4.69-30.11-16.41-39.15-11.72-9.04-27.45-9.53-39.39-5.4Z"/>
  <path class="cls-2" d="M334.63,98.89c-5.24.72-10.77,1.56-14.91,4.86-2.06,1.64-3.65,3.8-5.1,6-4.23,6.41-7.61,13.57-8.37,21.21-.76,7.64,1.38,15.81,6.85,21.19,4.8,4.72,11.53,6.84,18.03,8.6,6.73,1.82,14,3.4,20.55,1.01,10.72-3.91,15.24-17.07,14.33-28.45-.66-8.25-3.52-16.46-8.95-22.7-5.43-6.24-13.56-10.32-22.43-11.73Z"/>
  <path class="cls-8" d="M289.83,175.96c-.27,2.35-.07,5.11,1.83,6.52.96.71,2.2.94,3.4.97,2.8.06,5.64-.92,7.68-2.84,2.04-1.91,3.22-4.76,2.96-7.55,1.53,2.17,4.11,3.57,6.77,3.67s5.33-1.12,7.01-3.18c.67-.82,1.19-1.79,1.32-2.85.14-1.14-.22-2.33-.96-3.21"/>
  <path class="cls-4" d="M299.34,182.45c1.33,3.73.32,7.89-1.23,11.54-1.55,3.65-3.63,7.1-4.53,10.96-.97,4.12-.48,8.63,1.63,12.29s5.91,6.39,10.11,6.91c6.67.83,12.96-3.83,16.61-9.47,7.71-11.9,6-29.05-3.9-39.2-4.14,2.07-9.65.92-12.61-2.65.29,3.99-2.19,8.04-6.1,9.61Z"/>
  <path class="cls-13" d="M228.27,42.05c-7.19.99-13.27,3.01-17.08,9.18-15.47,25.04-20.46,40.83-29.59,68.81-3.16,9.67-6.87,32.82-7.92,42.94-3.12,29.79,10.87,65.18,24.61,91.79,7.51,14.55,11.24,27.6,29.99,40.77-14.09,1.77-28.97.43-37.62-10.83-8.65-11.26-13.11-25.09-17.41-38.62,10.12,22.46,16.71,46.5,19.45,70.98,1.04,9.26,1.56,18.7,4.6,27.5,3.04,8.81,9.11,17.12,17.89,20.24-15.86-.46-30.53-10.11-39.73-23.04-9.2-12.93-13.46-28.81-15.1-44.59-6.2,17.11-3.66,37.15,6.61,52.17-8-12.25-16.29-25.38-16.46-40.01-.08-7.34,1.91-14.53,2.76-21.82,4.48-38.32-22.39-73.39-26.48-111.75-4.41-41.42,17.92-80.48,39.76-115.95,8.78-14.26,19.67-29.9,36.24-32.29,7.34-1.06,14.76.74,21.08,2.36,15.69,3.65,31.06,11.31,36.52,26.47-9.08-10.02-15.53-12.8-32.12-14.31Z"/>
  <path class="cls-13" d="M267.81,42.52c3.11-4.09,6.58-6.34,12.94-5.97,3.85.22,7.5,1.78,10.44,4.27,7.72,6.54,15.44,13.08,23.16,19.63,2.61,2.21,5.45,4.13,8.51,5.65,5.22,2.6,20.54,14.1,23.5,17.8,21.14,26.44,26.05,50.68,27.46,84.5,6.5-15.63,8.45-33.12,5.56-49.8,3.3,7.33,4.88,15.42,4.58,23.46,6.92-21.56-2.92-44.7-14.01-64.43-9.96-17.71-21.29-34.96-36.39-48.56-15.1-13.6-34.38-23.37-54.69-23.92-5.73-.16-11.8.53-16.4,3.96-4.21,3.14-6.6,8.15-8.21,13.15-4.06,12.58-2.66,24.25,6.14,34.11,0,0,1.19-2.54,2.36-6.26,1.02-3.28,2.99-4.85,5.07-7.58Z"/>
  <path class="cls-9" d="M233.83,199.61c10.25-.73,19.76-7.32,24.54-16.42,4.78-9.1,4.91-20.37.86-29.82-1.23-2.87-2.85-5.62-5.02-7.87-3.94-4.08-9.44-6.27-14.94-7.63-7.89-1.95-16.61-2.32-23.79,1.49-7.18,3.82-12,12.78-9.09,20.37,1.14,2.98,3.3,5.45,5.55,7.7,3.41,3.41,7.51,6.65,12.32,6.94,2.08.13,4.16-.32,6.13-1.01,4.82-1.69,9.43-5.43,10.04-10.5s-4.79-10.46-9.44-8.36"/>
  <path class="cls-3" d="M340.05,163.75c-10.74.69-21.57-6.05-25.69-15.99-4.12-9.95-1.23-22.36,6.85-29.47,4-3.52,9-5.73,14.14-7.13,3.4-.92,7.11-1.49,10.39-.19,6.53,2.59,8.23,10.94,8.57,17.96.14,2.99.15,6.21-1.52,8.7-2.28,3.38-6.97,4.25-11.01,3.66-2.96-.43-5.94-1.57-7.91-3.81-1.97-2.25-2.66-5.78-1.05-8.3s5.73-3.2,7.66-.92"/>
  <path class="cls-6" d="M308.07,177.4c4.18,6.9,6.23,15.07,5.79,23.13"/>
</svg>