<?xml version="1.0" encoding="UTF-8"?>
<svg xmlns="http://www.w3.org/2000/svg" viewBox="0 0 160.4 160.4">
  <defs>
    <style>
      .cls-1 {
        fill: #c7bbaf;
      }

      .cls-2 {
        fill: #fb93ae;
      }

      .cls-3 {
        fill: #ee93be;
        stroke-width: .75px;
      }

      .cls-3, .cls-4, .cls-5 {
        stroke-miterlimit: 10;
      }

      .cls-3, .cls-5 {
        stroke: #ee93be;
      }

      .cls-4 {
        stroke: #fcc5b0;
      }

      .cls-4, .cls-5 {
        fill: none;
      }

      .cls-6 {
        fill: #fcc5b0;
      }
    </style>
  </defs>
  <g id="LineArt_copy" data-name="LineArt copy">
    <path class="cls-6" d="M61.42,48.05c18.78-10.85,37.9-2.76,40.57-1.58,21.17,9.39,35.59,35.03,30.05,50.53-9.43,26.38-79.79,32.07-93.16,6.32-7.73-14.9,2-43.4,22.54-55.27Z"/>
    <path class="cls-6" d="M72.8,46.46c-8.19-8.28-17.7-15.25-28.06-20.57-.88-.45-1.87-.91-2.83-.67-1.25.3-1.93,1.61-2.43,2.79-8,18.85-8.49,40.77-1.35,59.97"/>
    <path class="cls-6" d="M99.03,50.48c6.57-10.04,15.92-18.23,26.73-23.44.6-.29,1.29-.58,1.92-.35.5.18.83.63,1.12,1.07,2.27,3.51,3.01,7.77,3.51,11.92,1.86,15.61.79,31.55-3.12,46.78"/>
    <path class="cls-6" d="M38.43,83.48c-2.96,3.8-8.59,5.22-13,3.28-2.13,5.75.69,12.89,6.17,15.64-2.77,1.22-6.09,1.14-8.8-.22,1.77,6.92,8.55,11.31,15.18,13.98,15.35,6.18,32.89,6.75,48.6,1.56"/>
    <path class="cls-6" d="M129.9,77.79c3.59,3.99,10.57,4.22,14.42.47-.72,5.7-3.59,11.11-7.91,14.9,3.03-.43,5.97-1.56,8.51-3.28-6.2,12.79-19.66,25.12-36.92,28.74-10.79,2.27-46.18,3.75-49.28,2.38s-3.33-5.76-4.25-9.01"/>
  </g>
  <g id="Layer_3_copy" data-name="Layer 3 copy">
    <path class="cls-3" d="M80.96,81.21c-1,1.24-3.01,1.58-4.51,4.74-1.14,2.39-1,7.03,1.5,9.47,1.75,1.71,4.18,3.22,6.01,3.16,1.56-.05,5.76-.18,7.51-3.16,1.12-1.9,1.38-4.27,0-7.9-3.01-7.9-.7-3.74-1.5-4.74-2.61-3.25-6.25-4.99-9.02-1.58Z"/>
    <path class="cls-2" d="M41.89,81.21c2.21,3.31,6.27,4.16,9.02,4.74,1.66.35,4.28.86,7.51,0,.7-.19,4.35-1.22,7.51-4.74.87-.97,4.52-5.02,4.51-11.05,0-6.01-3.63-12.24-9.02-14.21-8.27-3.02-16.74,5.48-19.53,12.63-.54,1.38-3.12,7.96,0,12.63Z"/>
    <path class="cls-1" d="M103.5,59.1c-.88.49-3.12,1.92-4.51,4.74-2.43,4.92-.35,10.17,0,11.05,3.44,8.71,16.01,14.01,24.04,9.47.67-.38,5.16-3,6.01-7.9,1.26-7.21-6.39-13.44-10.52-15.79-1.53-.87-8.86-5.04-15.03-1.58Z"/>
    <path class="cls-5" d="M76.45,78.05c-.14.38-.79,2.18,0,3.16,1.12,1.4,4.32.08,4.51,0,1.68-.71,1.86-1.58,3.01-1.58s1.31.89,3.01,1.58c.61.25,2.89,1.18,4.51,0,1.24-.91,1.46-2.6,1.5-3.16"/>
  </g>
  <g id="Layer_11" data-name="Layer 11">
    <path class="cls-4" d="M46.54,67.96c1.84-2.06,4.31-3.5,6.95-4.05,2.4-.5,5.16-.16,6.85,1.7,1.54,1.7,1.86,4.24,1.87,6.59,0,1.35-.07,2.75-.63,3.97-1.04,2.28-3.48,3.42-5.79,4.11-2.06.62-4.4,1-6.23-.17-1.87-1.19-2.66-3.81-2.15-6.05.51-2.24,2.1-4.08,3.98-5.26,1.28-.8,3.07-1.26,4.13-.17.7.72.8,1.86.77,2.89-.02.86-.12,1.75-.56,2.47s-1.35,1.19-2.1.86"/>
    <path class="cls-4" d="M84.24,81.97c-.48,2.65-.6,5.37-.35,8.06"/>
    <path class="cls-4" d="M118.66,84.78c2.1-1.33,2.9-4.14,2.97-6.72.2-6.56-3.68-13.35-9.67-15.21-2.39-.74-5.35-.52-6.88,1.56-.57.78-.87,1.73-1.04,2.69-.38,2.21-.02,4.59,1.14,6.47,1.17,1.88,3.17,3.21,5.31,3.31,1.79.08,3.82-.99,4.09-2.85.1-.67-.05-1.36-.27-2-.46-1.35-1.36-2.66-2.68-3.03-1.32-.37-2.98.65-2.9,2.09"/>
  </g>
</svg>