<?xml version="1.0" encoding="utf-8"?>
<!-- Generator: Adobe Adobe Illustrator 24.2.0, SVG Export Plug-In . SVG Version: 6.00 Build 0)  -->
<svg version="1.1" xmlns="http://www.w3.org/2000/svg" xmlns:xlink="http://www.w3.org/1999/xlink" x="0px" y="0px" width="160px"
	 height="160px" viewBox="0 0 160 160" style="enable-background:new 0 0 160 160;" xml:space="preserve">
<style type="text/css">
	.st0{display:none;}
	.st1{display:inline;}
	.st2{fill:#EE93BE;stroke:#ED8FAC;stroke-miterlimit:10;}
	.st3{fill:#EE93BE;}
	.st4{display:inline;fill:#ED82B4;}
	.st5{display:inline;fill:#F5AC8D;stroke:#F2987E;stroke-width:0.75;stroke-miterlimit:10;}
	.st6{display:inline;fill:#F5AC8D;stroke:#F49B83;stroke-width:0.75;stroke-miterlimit:10;}
	.st7{display:inline;fill:#E1D3C7;stroke:#C1BCAB;stroke-miterlimit:10;}
	.st8{display:inline;fill:#FCC5B0;}
	.st9{fill:none;stroke:#F1997F;stroke-width:0.75;stroke-miterlimit:10;}
	.st10{display:inline;fill:#EE93BE;stroke:#EE93BE;stroke-width:0.75;stroke-miterlimit:10;}
	.st11{display:inline;fill:#FB93AE;}
	.st12{display:inline;fill:#C7BBAF;}
	.st13{display:inline;fill:none;stroke:#EE93BE;stroke-miterlimit:10;}
	.st14{display:inline;fill:none;stroke:#FCC5B0;stroke-miterlimit:10;}
	.st15{display:inline;fill:#EE93BE;}
	.st16{display:inline;fill:#EB8AB7;}
	.st17{display:inline;fill:none;stroke:#E985B2;stroke-width:0.75;stroke-miterlimit:10;}
	.st18{fill:#FCC5B0;}
	.st19{fill:#EE93BE;stroke:#EE93BE;stroke-width:0.75;stroke-miterlimit:10;}
	.st20{fill:#FB93AE;}
	.st21{fill:#C7BBAF;}
	.st22{fill:none;stroke:#EE93BE;stroke-miterlimit:10;}
	.st23{fill:none;stroke:#FCC5B0;stroke-miterlimit:10;}
	.st24{fill:#9685D4;}
	.st25{font-family:'ArialRoundedMTBold';}
	.st26{font-size:33.25px;}
</style>
<g id="Layer_1" class="st0">
</g>
<g id="Layer_6" class="st0">
	<g class="st1">
		<path class="st2" d="M49.49,132.92c0,0-1.11-1.55-1.99-2.42c-1-1-0.02,0.78-1,2c-1.71,2.13-4,2-4,2s2.13-0.61,2-3
			c-0.05-0.96-0.53-1.75-3-5c-0.63-0.82-1.22-1.66-1.84-2.49c-3.57-4.8-4.16-13.51-4.16-13.51s-0.38,2.34,0.25,5.56
			c1.13,5.76,3.46,9.37,3.46,9.37s-4.14-1.84-6.11-5.84c-3.16-6.42-1.61-14.09-1.61-14.09s-2.27,3.64-5.6,4.39
			c-4.1,0.92-8.4-4.39-8.4-4.39s2.65,1.6,5.4,0.87c4.09-1.08,5.71-7.42,6.6-10.87c1.87-7.33,0.66-13.11-0.09-13.19
			c-0.17-0.02-0.9,0.19-0.91,0.19c-0.86-3.89-0.31-6.82-0.25-8.75c0.21-6.54,4.85-18.25,4-18.25c-0.75,0-3.75-1-3.75-1
			c-2-1-2.32-1.63-3-3c-1-2,0.42-3.86,0.42-3.86s1.76,2.65,3.83,3.14c2.5,0.59,5.27-2.76,6.87-4.68c0,0,12.56-15.02,22.88-20.34
			c2.25-1.16,3.46-0.84,3.99-0.59c1.31,0.59,2.01,2.12,2.01,2.12s-0.81-1.37-1.08-2.42c-1.18-4.6,7.89-11.24,8.82-10.44
			c0.5,0.43-1.84,2.66-1.16,5.59c0.39,1.67,1.58,2.82,2.42,3.47"/>
		<path class="st2" d="M121.5,127.5c-3,4-6,1-6,1l3,2c-4,3-7.21-0.88-7.21-0.88s0.61,2.28,1.21,2.88c1,1,2,1,2,1
			s-1.38,0.78-2.85,0.92c-2.52,0.24-4.63-2.34-5.15-2.92c-7.7-8.46-52-6-57.01,1.42"/>
		<path class="st2" d="M73.24,26.53c0,0,0.55-1.85,1.26-3.03c0.47-0.79,2.49-4.18,6-5c2.74-0.64,5.64,0.47,6.8-0.91
			c0.1-0.12,0.17-0.24,0.43-0.54c0.6-0.7,1.68-1.8,1.7-2.15c0-0.02,0.01-0.19,0.07-0.4c0.01-0.04,0.02-0.06,0.02-0.06
			c0.08,0,1.96,4.85-0.05,8.46c-1.73,3.12-5.97,4.6-5.97,4.6s13.07-1.2,24,9c10.07,9.39,12,23,12.28,30.71
			c0.15,4.17,2.98,11.7,7.72,14.29c3.08,1.68,4.88,0.07,5,1c0.14,1.09-2.43,4.38-5,3c-0.12-0.07-3-2-3-2s6,26-10,39
			c-1.64,1.33,0,3,0,3c2.45,1.98,7.11,2,7.11,2"/>
		<path class="st3" d="M75.18,27.06c-1.23-0.13-2.52,0.13-3.52,0.85c-1,0.72-1.68,1.93-1.62,3.16c0.02,0.49,0.16,0.99,0.46,1.38
			c0.28,0.37,0.69,0.62,1.12,0.8c0.75,0.31,1.57,0.39,2.38,0.41c0.82,0.03,1.68-0.01,2.42-0.37c1.19-0.57,1.92-1.98,1.68-3.27
			C77.87,28.72,76.8,27.23,75.18,27.06z"/>
	</g>
</g>
<g id="Layer_12" class="st0">
	<path class="st4" d="M50.07,93.23c-2.79,12.97-2.98,26.48-0.57,39.53c2.1-3.15,5.81-4.79,9.41-5.97
		c9.66-3.18,20.03-4.21,30.13-2.99c2.41,0.29,4.96,0.78,6.72,2.46c0.84,0.8,1.44,1.82,2.19,2.72c1.37,1.65,3.24,2.86,5.3,3.44
		c0-1.06,1.41-1.58,2.41-1.23c1,0.35,1.72,1.2,2.59,1.79c1.29,0.87,2.97,1.16,4.48,0.77c-1.45-1.7-2.44-3.79-2.84-5.99
		c1.02,2.97,5.14,4.33,7.73,2.56c-1,0.14-2.07-0.37-2.59-1.24c1.84,0.49,3.89,0.1,5.42-1.04c-2.97,0.23-6.01-1.35-7.52-3.92
		c2,1.56,4.53,2.42,7.07,2.41c-3.1-1.93-3.94-6-4.44-9.62c-0.5-3.62-1.2-7.68-4.2-9.77c-1.65-1.15-4.14-2.09-3.94-4.09
		c-1.78,0.17-3.59,0.07-5.34-0.3c1.68-1.41,3.74-3.78,3.47-5.95c-2.22,0.76-5.66,1.61-8,1.48c-2.34-0.13-4.78-1.37-5.62-3.56
		c-0.58-1.51-0.33-3.19-0.07-4.78c0.65-3.99,1.3-7.98,1.95-11.97c1.59-9.79,3.17-19.93,0.63-29.51c-0.75-2.85-2.68-6.13-5.6-5.82
		c0.4-0.71-0.47-1.71-1.24-1.42c-0.6,0.27-1.21,0.54-1.81,0.81c0.08,1.08,1.92,1.06,2.4,0.08c0.47-0.98,0-2.13-0.52-3.09
		c-0.79-1.44-2.05-2.99-3.69-2.86c-2.46,0.19-3.63,3.97-6.1,3.79c-1.37-0.1-2.28-1.42-3.4-2.21c-1.69-1.2-4-1.2-5.98-0.55
		c-2.65,0.87-4.93,2.84-6.17,5.34c-0.55,1.1-0.9,2.29-1.24,3.48c-1.16,3.94-2.32,7.89-2.91,11.95c-0.37,2.5-0.52,5.05-1.34,7.43
		c-1,2.9-2.95,5.45-3.61,8.45c-0.67,3.06,0.14,6.41,2.15,8.82c2.38,2.86,6.07,4.21,9.54,5.58c0.36,0.14,0.75,0.31,0.95,0.65
		c0.46,0.78-0.42,1.67-1.22,2.11c-4.39,2.47-9.5,3.61-14.52,3.24c-0.94,1.45-3.42,1.45-4.37,0.01c-0.94-1.45,0.06-3.72,1.76-4
		S50.41,91.64,50.07,93.23z"/>
</g>
<g id="Layer_5" class="st0">
	<path class="st5" d="M49.5,92.5c1.85,4.98,4.16,6.51,5,7c1.69,0.98,4.12,1.32,9,2c2.13,0.3,3.57,0.41,6,1c2.7,0.66,4.07,1.01,5,2
		c1.87,2,0.44,4.13,2,6c2.19,2.63,8.37,2.48,10,0c1.34-2.05-0.84-5.06,1-7c0.62-0.65,1.37-0.85,2-1c8.29-2.04,11.64-2.58,14-4
		c2.66-1.6,3.76-4.13,5-7c1.74-4.02,10.81-28.2-4-44c-14.87-15.87-44.4-13.21-56,3C48.5,50.5,38.87,63.96,49.5,92.5z"/>
	<path class="st6" d="M69.5,112.5c-0.24-0.29,0.17-0.42-3-2c-2-1-4.33-1.7-6-2c-4.24-0.77-8.28-5.61-15-11
		c-2.45-1.97-10.12-8.72-13-13c-1-1.49-1.09-2.37-1-3c0.25-1.74,1-4,1-4c1-2-0.42-2.77-1-3c-2.49-0.97-4,4-4,4l0,0
		c-2.5-2.5-2.42-3.03-4-5c-4-5-3.19-4.29-4-4c-0.82,0.29-1.36,0.91-1,2c1,3,3.09,6.91,3,7c-0.08,0.08-1.75-2.07-5-4
		c-1.66-0.98-2.41-1-3-1c-1,0-1.72,1.28-1,2c2,2,5,5,5,5l-4-2c-2-1-2.68,0.04-3,1c-0.24,0.72,0.52,1.76,1,2c4,2,6.02,2.82,6,3
		c-0.01,0.15,0,0-4,1c0,0-1,0-1,1c0,2,1.82,2,3,2c1,0,2.9,0.73,4,1c1.52,0.37,7,4.5,8,6c2,3,8,8,8,8c17.19,23.22,19.27,23.98,21,24
		C64.2,127.57,71.59,114.99,69.5,112.5z"/>
	<path class="st6" d="M71.5,115.5c0.96,3.28,6.72,4.67,11,4c0.95-0.15,4.89-0.77,7-4c0.55-0.84,1.21-1.85,1-3
		c-0.52-2.81-5.95-4.28-10-4c-3.12,0.21-8.13,1.64-9,5C71.42,113.79,71.23,114.58,71.5,115.5z"/>
	<path class="st6" d="M93.5,112.5c0.24-0.29,0-1,4-4c1.79-1.34,4.33-2.7,6-3c4.24-0.77,7.42-4.69,14.14-10.08
		c2.45-1.97,10.12-8.72,13-13c1-1.49,1.09-2.37,1-3c-0.25-1.74-1-4-1-4c-1-2,0.42-2.77,1-3c2.49-0.97,4,4,4,4l0,0
		c2.5-2.5,2.42-3.03,4-5c4-5,3.19-4.29,4-4c0.82,0.29,1.36,0.91,1,2c-1,3-3.09,6.91-3,7c0.08,0.08,1.75-2.07,5-4
		c1.66-0.98,2.41-1,3-1c1,0,1.72,1.28,1,2c-2,2-5,5-5,5l4-2c2-1,2.68,0.04,3,1c0.24,0.72-0.52,1.76-1,2c-4,2-6.02,2.82-6,3
		c0.01,0.15,0,0,4,1c0,0,1,0,1,1c0,2-1.82,2-3,2c-1,0-2.9,0.73-4,1c-1.52,0.37-7,4.5-8,6c-2,3-8,8-8,8
		c-17.19,23.22-19.27,23.98-21,24C98.94,125.49,91.41,114.99,93.5,112.5z"/>
</g>
<g id="Layer_7" class="st0">
	<path class="st7" d="M54.5,138.5c0,0,3-2.38,0-6.19s-11-9.81-12-10.81s-3.51-3.84-2-11.76c0.92-4.83,0-0.5,0-0.5s-4,0.26-4-1.74
		s1.61-0.49,1.61-0.49s-5.61-3.51,0.39-2.51c0,0-0.17-5.48,3.17-1.31c0,0-0.22-4.75,4.11-1.95c0,0-0.28-6.74,1.72-4.74c0,0,1,3,5,4
		s8.25,7.92,9.25,11.92l0.24,0.54c1.28,1.21,3.28,1.38,4.68,0.29c0.27-0.21,0.55-0.46,0.84-0.75c2-2,4-2,5-2v4.5c0,0,3,0.13,7,2.31
		c0,0,3-1.81,9-1.81c0,0,2.84-0.98,0.65-4.95c-0.32-0.58,7.67,0.24,9.01,2.97c0,0,3.09-1.2,4.71-8.61c0,0-0.37-4.41,3.63-5.41
		s5-1,7-3s1.81-7.15,2.91-0.07c0,0,2.09-2.93,3.09,3.07c0,0,5-1,3,3c0,0,4.69-2.71,2.34,1.15c0,0,6.28,1.22-0.53,2.54
		c0,0-0.52,14.16-13.67,19.24c0,0-8.14,2.08-3.14,12.08c2.38,4.77-0.42-0.84,1,2L54.5,138.5z"/>
	<path class="st7" d="M74.5,107.5c0,0,6-4,13-1c0,0-0.39,0.99,0,3c0,0-4.35-1.51-12.17,0.24C75.33,109.74,75.5,108.5,74.5,107.5z"/>
</g>
<g id="LineArt" class="st0">
	<path class="st8" d="M63.5,41.5c12.5-6.87,25.22-1.75,27-1c14.09,5.94,23.69,22.18,20,32c-6.27,16.71-53.1,20.31-62,4
		C43.35,67.07,49.83,49.01,63.5,41.5z"/>
</g>
<g id="Layer_3" class="st0">
	<g id="Layer_8" class="st1">
		<path class="st9" d="M63.24,94.81c1.67-0.18,2.91-1.54,2.94-3.06c0.02-1.26-0.8-2.46-2.06-2.96"/>
		<path class="st9" d="M96.18,91.08c-1.04-0.23-1.85-1-2.05-1.95c-0.26-1.23,0.53-2.6,1.93-3.05"/>
		<line class="st9" x1="66.19" y1="91.75" x2="94.14" y2="89.22"/>
	</g>
	<path class="st10" d="M76.5,62.5c-0.67,0.78-2,1-3,3c-0.76,1.52-0.67,4.45,1,6c1.17,1.08,2.78,2.04,4,2c1.04-0.03,3.83-0.11,5-2
		c0.74-1.2,0.92-2.7,0-5c-2-5-0.46-2.37-1-3C80.76,61.44,78.34,60.34,76.5,62.5z"/>
	<path class="st11" d="M50.5,62.5c1.47,2.1,4.17,2.64,6,3c1.1,0.22,2.85,0.55,5,0c0.46-0.12,2.89-0.77,5-3c0.58-0.62,3.01-3.18,3-7
		c-0.01-3.81-2.42-7.75-6-9c-5.5-1.91-11.14,3.47-13,8C50.14,55.38,48.43,59.54,50.5,62.5z"/>
	<path class="st12" d="M91.5,48.5c-0.58,0.31-2.07,1.21-3,3c-1.61,3.11-0.23,6.44,0,7c2.29,5.52,10.65,8.87,16,6
		c0.44-0.24,3.43-1.9,4-5c0.84-4.57-4.25-8.51-7-10C100.48,48.95,95.61,46.31,91.5,48.5z"/>
	<path class="st13" d="M73.5,60.5c-0.09,0.24-0.52,1.38,0,2c0.75,0.88,2.88,0.05,3,0c1.12-0.45,1.24-1,2-1c0.77,0,0.87,0.56,2,1
		c0.41,0.16,1.92,0.75,3,0c0.83-0.57,0.97-1.64,1-2"/>
</g>
<g id="Layer_11_copy" class="st0">
	<path class="st14" d="M53.6,54.11c1.23-1.31,2.87-2.22,4.63-2.57c1.6-0.32,3.43-0.1,4.56,1.08c1.03,1.08,1.24,2.69,1.24,4.17
		c0,0.86-0.05,1.74-0.42,2.51c-0.69,1.44-2.32,2.16-3.85,2.6c-1.37,0.39-2.93,0.63-4.15-0.11c-1.25-0.75-1.77-2.41-1.43-3.83
		s1.4-2.58,2.65-3.33c0.85-0.51,2.04-0.8,2.75-0.11c0.47,0.46,0.53,1.18,0.51,1.83c-0.02,0.54-0.08,1.11-0.37,1.56
		c-0.3,0.45-0.9,0.75-1.4,0.55"/>
	<path class="st14" d="M78.68,62.98c-0.32,1.68-0.4,3.4-0.24,5.1"/>
	<path class="st14" d="M101.59,64.76c1.4-0.84,1.93-2.62,1.98-4.25c0.13-4.15-2.45-8.46-6.44-9.64c-1.59-0.47-3.56-0.33-4.58,0.99
		c-0.38,0.49-0.58,1.1-0.69,1.71c-0.25,1.4-0.02,2.9,0.76,4.1c0.78,1.19,2.11,2.03,3.53,2.1c1.19,0.05,2.54-0.63,2.72-1.81
		c0.06-0.43-0.03-0.86-0.18-1.27c-0.31-0.86-0.9-1.69-1.78-1.92c-0.88-0.24-1.98,0.41-1.93,1.32"/>
</g>
<g id="Layer_10" class="st0">
	<path class="st15" d="M117.69,83.78c5,16-11,21-9,19s8-13,8-13c-8,13-14,13-14,13c5-6,10-20,10-20c-5,13-12,11-12,11
		c11-8,10-21,10-21c-3-25-26.04-37-26.04-37c-2.01,0-4.65,2.15-4.65,2.15c0,0-9.25-1.24-12-1.92C53,49,50.69,57.78,47.69,72.78
		s10,18,10,18s-11.06,5-15.53-10.5c0,0,3.53,13.5,13.53,12.5c0,0-12,3-18-10c0,0-5-11,2-22c0,0,8.81-26.28,23.81-27.28
		s12.17-5,32.58,2S117.69,83.78,117.69,83.78z"/>
</g>
<g id="Layer_13" class="st0">
	<path class="st16" d="M67.94,34.73c-3.17,2.61-6,5.63-8.39,8.97c1.59-0.9,3.17-1.8,4.76-2.7c1.41-0.8,3.67-1.39,5.18-1.95
		c3.64-1.36,7.09-1.31,11.16-1.09c1.15,0.06,4.11,0.72,5.22,1.03c5.34,1.52,3.56,0.83,6.43,1.97c-0.66-1.12-1.14-2.24-2.2-3
		c-1.75-1.27-4.08-3.1-6.25-3.24c-2.34-0.16-3.16,2.5-5.5,2.68c-0.7,0.05-2.61-0.38-3.28-0.17c-0.53,0.17-0.08,0.7-0.61,0.53
		c-0.36-0.12-0.98-0.73-1.23-1.02C72.33,35.63,70.36,35.09,67.94,34.73z"/>
</g>
<g id="Layer_9" class="st0">
	<path class="st17" d="M74.5,37.96c0,0-2.71-3.14-5.24-3.24c-0.79-0.03-1.58,0.25-2.17,0.77c-14.17,12.53-16.65,22.31-19.59,37
		c-3,15,10,18,10,18s-11.06,5-15.53-10.5c0,0,3.53,13.5,13.53,12.5c0,0-12,3-18-10c0,0-5-11,2-22"/>
	<path class="st17" d="M117.5,83.5c5,16-11,21-9,19s8-13,8-13c-8,13-14,13-14,13c5-6,10-20,10-20c-5,13-12,11-12,11
		c11-8,10-21,10-21c-2.58-21.48-19.91-34.54-24.75-37.52c-0.93-0.57-2.07-0.71-3.09-0.34c-1.71,0.63-3.98,3.32-3.98,3.32"/>
</g>
<g id="Layer_14" class="st0">
</g>
<g id="LineArt_copy">
	<path class="st18" d="M57.4,46.27c18.78-10.85,37.9-2.76,40.57-1.58c21.17,9.39,35.59,35.03,30.05,50.53
		c-9.43,26.38-79.79,32.07-93.16,6.32C27.13,86.64,36.86,58.14,57.4,46.27z"/>
	<path class="st18" d="M68.78,44.69c-8.19-8.28-17.7-15.25-28.06-20.57c-0.88-0.45-1.87-0.91-2.83-0.67
		c-1.25,0.3-1.93,1.61-2.43,2.79c-8,18.85-8.49,40.77-1.35,59.97"/>
	<path class="st18" d="M95,48.7c6.57-10.04,15.92-18.23,26.73-23.44c0.6-0.29,1.29-0.58,1.92-0.35c0.5,0.18,0.83,0.63,1.12,1.07
		c2.27,3.51,3.01,7.77,3.51,11.92c1.86,15.61,0.79,31.55-3.12,46.78"/>
	<path class="st18" d="M34.41,81.7c-2.96,3.8-8.59,5.22-13,3.28c-2.13,5.75,0.69,12.89,6.17,15.64c-2.77,1.22-6.09,1.14-8.8-0.22
		c1.77,6.92,8.55,11.31,15.18,13.98c15.35,6.18,32.89,6.75,48.6,1.56"/>
	<path class="st18" d="M125.88,76.01c3.59,3.99,10.57,4.22,14.42,0.47c-0.72,5.7-3.59,11.11-7.91,14.9
		c3.03-0.43,5.97-1.56,8.51-3.28c-6.2,12.79-19.66,25.12-36.92,28.74c-10.79,2.27-46.18,3.75-49.28,2.38
		c-3.1-1.36-3.33-5.76-4.25-9.01"/>
</g>
<g id="Layer_3_copy">
	<g id="Layer_8_copy">
	</g>
	<path class="st19" d="M76.94,79.43c-1,1.24-3.01,1.58-4.51,4.74c-1.14,2.39-1,7.03,1.5,9.47c1.75,1.71,4.18,3.22,6.01,3.16
		c1.56-0.05,5.76-0.18,7.51-3.16c1.12-1.9,1.38-4.27,0-7.9c-3.01-7.9-0.7-3.74-1.5-4.74C83.34,77.76,79.7,76.02,76.94,79.43z"/>
	<path class="st20" d="M37.87,79.43c2.21,3.31,6.27,4.16,9.02,4.74c1.66,0.35,4.28,0.86,7.51,0c0.7-0.19,4.35-1.22,7.51-4.74
		c0.87-0.97,4.52-5.02,4.51-11.05c-0.01-6.01-3.63-12.24-9.02-14.21c-8.27-3.02-16.74,5.48-19.53,12.63
		C37.32,68.18,34.75,74.76,37.87,79.43z"/>
	<path class="st21" d="M99.48,57.32c-0.88,0.49-3.12,1.92-4.51,4.74c-2.43,4.92-0.35,10.17,0,11.05
		c3.44,8.71,16.01,14.01,24.04,9.47c0.67-0.38,5.16-3,6.01-7.9c1.26-7.21-6.39-13.44-10.52-15.79
		C112.97,58.03,105.64,53.86,99.48,57.32z"/>
	<path class="st22" d="M72.43,76.27c-0.14,0.38-0.79,2.18,0,3.16c1.12,1.4,4.32,0.08,4.51,0c1.68-0.71,1.86-1.58,3.01-1.58
		c1.16,0,1.31,0.89,3.01,1.58c0.61,0.25,2.89,1.18,4.51,0c1.24-0.91,1.46-2.6,1.5-3.16"/>
</g>
<g id="Layer_11">
	<path class="st23" d="M42.52,66.18c1.84-2.06,4.31-3.5,6.95-4.05c2.4-0.5,5.16-0.16,6.85,1.7c1.54,1.7,1.86,4.24,1.87,6.59
		c0.01,1.35-0.07,2.75-0.63,3.97c-1.04,2.28-3.48,3.42-5.79,4.11c-2.06,0.62-4.4,1-6.23-0.17c-1.87-1.19-2.66-3.81-2.15-6.05
		c0.51-2.24,2.1-4.08,3.98-5.26c1.28-0.8,3.07-1.26,4.13-0.17c0.7,0.72,0.8,1.86,0.77,2.89c-0.02,0.86-0.12,1.75-0.56,2.47
		c-0.45,0.72-1.35,1.19-2.1,0.86"/>
	<path class="st23" d="M80.21,80.19c-0.48,2.65-0.6,5.37-0.35,8.06"/>
	<path class="st23" d="M114.64,83c2.1-1.33,2.9-4.14,2.97-6.72c0.2-6.56-3.68-13.35-9.67-15.21c-2.39-0.74-5.35-0.52-6.88,1.56
		c-0.57,0.78-0.87,1.73-1.04,2.69c-0.38,2.21-0.02,4.59,1.14,6.47c1.17,1.88,3.17,3.21,5.31,3.31c1.79,0.08,3.82-0.99,4.09-2.85
		c0.1-0.67-0.05-1.36-0.27-2c-0.46-1.35-1.36-2.66-2.68-3.03c-1.32-0.37-2.98,0.65-2.9,2.09"/>
</g>
<g id="Layer_18">
	<text transform="matrix(1 0 0 1 7.9151 130.6108)" class="st24 st25 st26">MY JUNK</text>
</g>
</svg>
