<?xml version="1.0" encoding="UTF-8"?>
<svg xmlns="http://www.w3.org/2000/svg" viewBox="0 0 160.4 160.4">
  <defs>
    <style>
      .cls-1, .cls-2, .cls-3 {
        fill: #ee93be;
      }

      .cls-4 {
        fill: #c7bbaf;
      }

      .cls-5 {
        fill: #f279b2;
      }

      .cls-2 {
        stroke: #ed8fac;
      }

      .cls-2, .cls-3, .cls-6, .cls-7, .cls-8, .cls-9, .cls-10, .cls-11, .cls-12 {
        stroke-miterlimit: 10;
      }

      .cls-13 {
        fill: #fb93ae;
      }

      .cls-14 {
        fill: #ed82b4;
      }

      .cls-3, .cls-6, .cls-8, .cls-10, .cls-11 {
        stroke-width: .75px;
      }

      .cls-3, .cls-12 {
        stroke: #ee93be;
      }

      .cls-6 {
        stroke: #f2987e;
      }

      .cls-6, .cls-10 {
        fill: #f5ac8d;
      }

      .cls-7 {
        fill: #e1d3c7;
        stroke: #c1bcab;
      }

      .cls-8 {
        stroke: #e985b2;
      }

      .cls-8, .cls-9, .cls-11, .cls-12 {
        fill: none;
      }

      .cls-9 {
        stroke: #fcc5b0;
      }

      .cls-10 {
        stroke: #f49b83;
      }

      .cls-11 {
        stroke: #f1997f;
      }

      .cls-15 {
        fill: #fcc5b0;
      }
    </style>
  </defs>
  <g id="Layer_6" data-name="Layer 6">
    <g>
      <path class="cls-2" d="M49.49,132.92s-1.11-1.55-1.99-2.42c-1-1-.02.78-1,2-1.71,2.13-4,2-4,2,0,0,2.13-.61,2-3-.05-.96-.53-1.75-3-5-.63-.82-1.22-1.66-1.84-2.49-3.57-4.8-4.16-13.51-4.16-13.51,0,0-.38,2.34.25,5.56,1.13,5.76,3.46,9.37,3.46,9.37,0,0-4.14-1.84-6.11-5.84-3.16-6.42-1.61-14.09-1.61-14.09,0,0-2.27,3.64-5.6,4.39-4.1.92-8.4-4.39-8.4-4.39,0,0,2.65,1.6,5.4.87,4.09-1.08,5.71-7.42,6.6-10.87,1.87-7.33.66-13.11-.09-13.19-.17-.02-.9.19-.91.19-.86-3.89-.31-6.82-.25-8.75.21-6.54,4.85-18.25,4-18.25-.75,0-3.75-1-3.75-1-2-1-2.32-1.63-3-3-1-2,.42-3.86.42-3.86,0,0,1.76,2.65,3.83,3.14,2.5.59,5.27-2.76,6.87-4.68,0,0,12.56-15.02,22.88-20.34,2.25-1.16,3.46-.84,3.99-.59,1.31.59,2.01,2.12,2.01,2.12,0,0-.81-1.37-1.08-2.42-1.18-4.6,7.89-11.24,8.82-10.44.5.43-1.84,2.66-1.16,5.59.39,1.67,1.58,2.82,2.42,3.47"/>
      <path class="cls-2" d="M121.5,127.5c-3,4-6,1-6,1l3,2c-4,3-7.21-.88-7.21-.88,0,0,.61,2.28,1.21,2.88,1,1,2,1,2,1,0,0-1.38.78-2.85.92-2.52.24-4.63-2.34-5.15-2.92-7.7-8.46-52-6-57.01,1.42"/>
      <path class="cls-2" d="M73.24,26.53s.55-1.85,1.26-3.03c.47-.79,2.49-4.18,6-5,2.74-.64,5.64.47,6.8-.91.1-.12.17-.24.43-.54.6-.7,1.68-1.8,1.7-2.15,0-.02,0-.19.07-.4.01-.04.02-.06.02-.06.08,0,1.96,4.85-.05,8.46-1.73,3.12-5.97,4.6-5.97,4.6,0,0,13.07-1.2,24,9,10.07,9.39,12,23,12.28,30.71.15,4.17,2.98,11.7,7.72,14.29,3.08,1.68,4.88.07,5,1,.14,1.09-2.43,4.38-5,3-.12-.07-3-2-3-2,0,0,6,26-10,39-1.64,1.33,0,3,0,3,2.45,1.98,7.11,2,7.11,2"/>
      <path class="cls-1" d="M75.18,27.06c-1.23-.13-2.52.13-3.52.85s-1.68,1.93-1.62,3.16c.02.49.16.99.46,1.38.28.37.69.62,1.12.8.75.31,1.57.39,2.38.41.82.03,1.68-.01,2.42-.37,1.19-.57,1.92-1.98,1.68-3.27s-1.29-2.79-2.91-2.96Z"/>
    </g>
  </g>
  <g id="Layer_12" data-name="Layer 12">
    <path class="cls-14" d="M50.07,93.23c-2.79,12.97-2.98,26.48-.57,39.53,2.1-3.15,5.81-4.79,9.41-5.97,9.66-3.18,20.03-4.21,30.13-2.99,2.41.29,4.96.78,6.72,2.46.84.8,1.44,1.82,2.19,2.72,1.37,1.65,3.24,2.86,5.3,3.44,0-1.06,1.41-1.58,2.41-1.23s1.72,1.2,2.59,1.79c1.29.87,2.97,1.16,4.48.77-1.45-1.7-2.44-3.79-2.84-5.99,1.02,2.97,5.14,4.33,7.73,2.56-1,.14-2.07-.37-2.59-1.24,1.84.49,3.89.1,5.42-1.04-2.97.23-6.01-1.35-7.52-3.92,2,1.56,4.53,2.42,7.07,2.41-3.1-1.93-3.94-6-4.44-9.62s-1.2-7.68-4.2-9.77c-1.65-1.15-4.14-2.09-3.94-4.09-1.78.17-3.59.07-5.34-.3,1.68-1.41,2.58-3.69,2.31-5.87-2.22.76-4.5,1.52-6.84,1.39s-4.78-1.37-5.62-3.56c-.58-1.51-.33-3.19-.07-4.78.65-3.99,1.3-7.98,1.95-11.97,1.59-9.79,3.17-19.93.63-29.51-.75-2.85-2.68-6.13-5.6-5.82.4-.71-.47-1.71-1.24-1.42-.6.27-1.21.54-1.81.81.08,1.08,1.92,1.06,2.4.08s0-2.13-.52-3.09c-.79-1.44-2.05-2.99-3.69-2.86-2.46.19-3.63,3.97-6.1,3.79-1.37-.1-2.28-1.42-3.4-2.21-1.69-1.2-4-1.2-5.98-.55-2.65.87-4.93,2.84-6.17,5.34-.55,1.1-.9,2.29-1.24,3.48-1.16,3.94-2.32,7.89-2.91,11.95-.37,2.5-.52,5.05-1.34,7.43-1,2.9-2.95,5.45-3.61,8.45-.67,3.06.14,6.41,2.15,8.82,2.38,2.86,6.07,4.21,9.54,5.58.36.14.75.31.95.65.46.78-.42,1.67-1.22,2.11-4.39,2.47-9.5,3.61-14.52,3.24-.94,1.45-3.42,1.45-4.37,0s.06-3.72,1.76-4,2.91,1.38,2.56,2.97Z"/>
  </g>
  <g id="Layer_5" data-name="Layer 5">
    <path class="cls-6" d="M49.5,92.5c1.85,4.98,4.16,6.51,5,7,1.69.98,4.12,1.32,9,2,2.13.3,3.57.41,6,1,2.7.66,4.07,1.01,5,2,1.87,2,.44,4.13,2,6,2.19,2.63,8.37,2.48,10,0,1.34-2.05-.84-5.06,1-7,.62-.65,1.37-.85,2-1,8.29-2.04,11.64-2.58,14-4,2.66-1.6,3.76-4.13,5-7,1.74-4.02,10.81-28.2-4-44-14.87-15.87-44.4-13.21-56,3,0,0-9.63,13.46,1,42Z"/>
    <path class="cls-10" d="M69.5,112.5c-.24-.29.17-.42-3-2-2-1-4.33-1.7-6-2-4.24-.77-8.28-5.61-15-11-2.45-1.97-10.12-8.72-13-13-1-1.49-1.09-2.37-1-3,.25-1.74,1-4,1-4,1-2-.42-2.77-1-3-2.49-.97-4,4-4,4h0c-2.5-2.5-2.42-3.03-4-5-4-5-3.19-4.29-4-4-.82.29-1.36.91-1,2,1,3,3.09,6.91,3,7-.08.08-1.75-2.07-5-4-1.66-.98-2.41-1-3-1-1,0-1.72,1.28-1,2l5,5-4-2c-2-1-2.68.04-3,1-.24.72.52,1.76,1,2,4,2,6.02,2.82,6,3-.01.15,0,0-4,1,0,0-1,0-1,1,0,2,1.82,2,3,2,1,0,2.9.73,4,1,1.52.37,7,4.5,8,6,2,3,8,8,8,8,17.19,23.22,19.27,23.98,21,24,7.7.07,15.09-12.51,13-15Z"/>
    <path class="cls-10" d="M71.5,115.5c.96,3.28,6.72,4.67,11,4,.95-.15,4.89-.77,7-4,.55-.84,1.21-1.85,1-3-.52-2.81-5.95-4.28-10-4-3.12.21-8.13,1.64-9,5-.08.29-.27,1.08,0,2Z"/>
    <path class="cls-10" d="M93.5,112.5c.24-.29,0-1,4-4,1.79-1.34,4.33-2.7,6-3,4.24-.77,7.42-4.69,14.14-10.08,2.45-1.97,10.12-8.72,13-13,1-1.49,1.09-2.37,1-3-.25-1.74-1-4-1-4-1-2,.42-2.77,1-3,2.49-.97,4,4,4,4h0c2.5-2.5,2.42-3.03,4-5,4-5,3.19-4.29,4-4,.82.29,1.36.91,1,2-1,3-3.09,6.91-3,7,.08.08,1.75-2.07,5-4,1.66-.98,2.41-1,3-1,1,0,1.72,1.28,1,2l-5,5,4-2c2-1,2.68.04,3,1,.24.72-.52,1.76-1,2-4,2-6.02,2.82-6,3,.01.15,0,0,4,1,0,0,1,0,1,1,0,2-1.82,2-3,2-1,0-2.9.73-4,1-1.52.37-7,4.5-8,6-2,3-8,8-8,8-17.19,23.22-19.27,23.98-21,24-7.7.07-15.23-10.43-13.14-12.92Z"/>
  </g>
  <g id="Layer_7" data-name="Layer 7">
    <path class="cls-7" d="M54.5,138.5s3-2.38,0-6.19-11-9.81-12-10.81-3.51-3.84-2-11.76c.92-4.83,0-.5,0-.5,0,0-4,.26-4-1.74s1.61-.49,1.61-.49c0,0-5.61-3.51.39-2.51,0,0-.17-5.48,3.17-1.31,0,0-.22-4.75,4.11-1.95,0,0-.28-6.74,1.72-4.74,0,0,1,3,5,4s8.25,7.92,9.25,11.92l.24.54c1.28,1.21,3.28,1.38,4.68.29.27-.21.55-.46.84-.75,2-2,4-2,5-2v4.5s3,.13,7,2.31c0,0,3-1.81,9-1.81,0,0,2.84-.98.65-4.95-.32-.58,7.67.24,9.01,2.97,0,0,3.09-1.2,4.71-8.61,0,0-.37-4.41,3.63-5.41s5-1,7-3,1.81-7.15,2.91-.07c0,0,2.09-2.93,3.09,3.07,0,0,5-1,3,3,0,0,4.69-2.71,2.34,1.15,0,0,6.28,1.22-.53,2.54,0,0-.52,14.16-13.67,19.24,0,0-8.14,2.08-3.14,12.08,2.38,4.77-.42-.84,1,2l-54-1Z"/>
    <path class="cls-7" d="M74.5,107.5s6-4,13-1c0,0-.39.99,0,3,0,0-4.35-1.51-12.17.24,0,0,.17-1.24-.83-2.24Z"/>
  </g>
  <g id="LineArt">
    <path class="cls-15" d="M63.5,41.5c12.5-6.87,25.22-1.75,27-1,14.09,5.94,23.69,22.18,20,32-6.27,16.71-53.1,20.31-62,4-5.15-9.43,1.33-27.49,15-35Z"/>
  </g>
  <g id="Layer_3" data-name="Layer 3">
    <g id="Layer_8" data-name="Layer 8">
      <path class="cls-11" d="M63.24,94.81c1.67-.18,2.91-1.54,2.94-3.06.02-1.26-.8-2.46-2.06-2.96"/>
      <path class="cls-11" d="M96.18,91.08c-1.04-.23-1.85-1-2.05-1.95-.26-1.23.53-2.6,1.93-3.05"/>
      <line class="cls-11" x1="66.19" y1="91.75" x2="94.14" y2="89.22"/>
    </g>
    <path class="cls-3" d="M76.5,62.5c-.67.78-2,1-3,3-.76,1.52-.67,4.45,1,6,1.17,1.08,2.78,2.04,4,2,1.04-.03,3.83-.11,5-2,.74-1.2.92-2.7,0-5-2-5-.46-2.37-1-3-1.74-2.06-4.16-3.16-6-1Z"/>
    <path class="cls-13" d="M50.5,62.5c1.47,2.1,4.17,2.64,6,3,1.1.22,2.85.55,5,0,.46-.12,2.89-.77,5-3,.58-.62,3.01-3.18,3-7,0-3.81-2.42-7.75-6-9-5.5-1.91-11.14,3.47-13,8-.36.88-2.07,5.04,0,8Z"/>
    <path class="cls-4" d="M91.5,48.5c-.58.31-2.07,1.21-3,3-1.61,3.11-.23,6.44,0,7,2.29,5.52,10.65,8.87,16,6,.44-.24,3.43-1.9,4-5,.84-4.57-4.25-8.51-7-10-1.02-.55-5.89-3.19-10-1Z"/>
    <path class="cls-12" d="M73.5,60.5c-.09.24-.52,1.38,0,2,.75.88,2.88.05,3,0,1.12-.45,1.24-1,2-1s.87.56,2,1c.41.16,1.92.75,3,0,.83-.57.97-1.64,1-2"/>
  </g>
  <g id="Layer_11" data-name="Layer 11">
    <path class="cls-9" d="M53.6,54.11c1.23-1.31,2.87-2.22,4.63-2.57,1.6-.32,3.43-.1,4.56,1.08,1.03,1.08,1.24,2.69,1.24,4.17,0,.86-.05,1.74-.42,2.51-.69,1.44-2.32,2.16-3.85,2.6-1.37.39-2.93.63-4.15-.11-1.25-.75-1.77-2.41-1.43-3.83s1.4-2.58,2.65-3.33c.85-.51,2.04-.8,2.75-.11.47.46.53,1.18.51,1.83-.02.54-.08,1.11-.37,1.56s-.9.75-1.4.55"/>
    <path class="cls-9" d="M78.68,62.98c-.32,1.68-.4,3.4-.24,5.1"/>
    <path class="cls-9" d="M101.59,64.76c1.4-.84,1.93-2.62,1.98-4.25.13-4.15-2.45-8.46-6.44-9.64-1.59-.47-3.56-.33-4.58.99-.38.49-.58,1.1-.69,1.71-.25,1.4-.02,2.9.76,4.1s2.11,2.03,3.53,2.1c1.19.05,2.54-.63,2.72-1.81.06-.43-.03-.86-.18-1.27-.31-.86-.9-1.69-1.78-1.92s-1.98.41-1.93,1.32"/>
  </g>
  <g id="Layer_10" data-name="Layer 10">
    <path class="cls-1" d="M117.69,83.78c5,16-11,21-9,19s8-13,8-13c-8,13-14,13-14,13,5-6,10-20,10-20-5,13-12,11-12,11,11-8,10-21,10-21-3-25-26.04-37-26.04-37-2.01,0-4.65,2.15-4.65,2.15,0,0-9.25-1.24-12-1.92-15,13-17.31,21.78-20.31,36.78s10,18,10,18c0,0-11.06,5-15.53-10.5,0,0,3.53,13.5,13.53,12.5,0,0-12,3-18-10,0,0-5-11,2-22,0,0,8.81-26.28,23.81-27.28s12.17-5,32.58,2,21.61,48.28,21.61,48.28Z"/>
  </g>
  <g id="Layer_13" data-name="Layer 13">
    <path class="cls-5" d="M67.94,34.73c-3.17,2.61-6,5.63-8.39,8.97,1.59-.9,3.17-1.8,4.76-2.7,1.41-.8,3.67-1.39,5.18-1.95,3.64-1.36,7.09-1.31,11.16-1.09,1.15.06,4.11.72,5.22,1.03,5.34,1.52,3.56.83,6.43,1.97-.66-1.12-1.25-2.2-2.31-2.96-1.75-1.27-3.84-3.86-6-4-2.34-.16-4.49,2.97-6.82,3.15-.7.05-1.43-.05-2.11.16-.53.17-1.07.53-1.6.36-.36-.12-.59-.45-.84-.74-.91-1.11-2.27-1.83-4.7-2.18Z"/>
  </g>
  <g id="Layer_9" data-name="Layer 9">
    <path class="cls-8" d="M74.5,37.96s-2.71-3.14-5.24-3.24c-.79-.03-1.58.25-2.17.77-14.17,12.53-16.65,22.31-19.59,37s10,18,10,18c0,0-11.06,5-15.53-10.5,0,0,3.53,13.5,13.53,12.5,0,0-12,3-18-10,0,0-5-11,2-22"/>
    <path class="cls-8" d="M117.5,83.5c5,16-11,21-9,19s8-13,8-13c-8,13-14,13-14,13,5-6,10-20,10-20-5,13-12,11-12,11,11-8,10-21,10-21-2.58-21.48-19.91-34.54-24.75-37.52-.93-.57-2.07-.71-3.09-.34-1.71.63-3.98,3.32-3.98,3.32"/>
  </g>
</svg>