<?xml version="1.0" encoding="utf-8"?>
<!-- Generator: Adobe Adobe Illustrator 24.2.0, SVG Export Plug-In . SVG Version: 6.00 Build 0)  -->
<svg version="1.1" id="Layer_1" xmlns="http://www.w3.org/2000/svg" xmlns:xlink="http://www.w3.org/1999/xlink" x="0px" y="0px"
	 width="20px" height="20px" viewBox="0 0 20 20" style="enable-background:new 0 0 20 20;" xml:space="preserve">
<style type="text/css">
	.st0{display:none;}
	.st1{fill:#FFFFFF;stroke:#FFFFFF;stroke-miterlimit:10;}
</style>
<g id="Layer_2" class="st0">
</g>
<path class="st1" d="M6.41,3.04c-0.27,0.1-1.98,0.79-2.88,1.69c-0.2,0.2-0.18,0.62-0.03,0.86c0.15,0.24,0.42,0.49,0.7,0.5
	C4.8,6.12,5.36,6.23,5.96,6.11C5.9,7.93,5.85,9.75,5.92,11.57c0.02,0.43,0.05,0.87,0.25,1.24c0.11,0.22,0.28,0.41,0.38,0.64
	c0.12,0.29,0.11,0.61,0.1,0.92c-0.01,0.96,0.05,1.92,0.2,2.87c0.02,0.16,0.05,0.32,0.14,0.46c0.15,0.21,0.42,0.3,0.68,0.34
	c0.35,0.06,0.71,0.08,1.07,0.06c0.08,0,0.17-0.01,0.24-0.07c0.1-0.08,0.11-0.24,0.1-0.37c-0.03-0.75-0.1-1.61-0.14-2.39
	c-0.06-1.22,0.92-2.24,2.14-2.22c0.02,0,0.04,0,0.06,0c1.03,0.02,1.87,0.82,1.95,1.84c0.01,0.15,0.02,0.21,0.01,0.1
	c-0.04-0.97,0.02,1.43,0.13,2.39c0.02,0.21,0.07,0.44,0.24,0.55c0.14,0.09,0.32,0.07,0.49,0.04c0.27-0.04,0.55-0.08,0.82-0.13
	c0.13-0.02,0.27-0.04,0.37-0.13c0.17-0.14,0.17-0.39,0.16-0.61c-0.05-1.25-0.1-2.56-0.16-3.81c0-0.12,0.04,0.16,0.11,0.06
	c0.02-0.02,0.04-0.05,0.07-0.1c0.58-0.77,0.83-1.78,0.56-2.71c-0.08-0.26-0.19-0.49-0.37-0.64c-0.08-0.07-0.17-0.13-0.26-0.19
	c-0.72-0.44-1.47-0.49-2.32-0.41c-0.79,0.08-1.68,0.15-2.55,0.15c-0.92,0-1.68-0.71-1.72-1.63c-0.08-1.85-0.13-3.97-0.25-5.6
	C8.4,1.89,8.36,1.49,8.12,1.2C7.91,0.95,7.54,0.83,7.22,0.92S6.64,1.3,6.59,1.63C6.51,2.1,6.42,3.02,6.51,2.94
	c0.1-0.09,0.11,0.12-0.01,0.15C6.19,3.18,6.25,3.13,6.41,3.04z"/>
<path class="st1" d="M14.94,11.11c-0.01,0.41,0,0.89,0.32,1.16c0.11,0.09,0.29,0.13,0.36,0.01c0.02-0.03,0.03-0.07,0.03-0.11
	c0.09-0.61,0.03-1.25-0.18-1.83c-0.1-0.28-0.24-0.56-0.48-0.75c-0.23-0.19-0.57-0.26-0.84-0.12"/>
<path class="st1" d="M15.71,10.17c0.48,0.09,0.87,0.52,0.91,1.01c0.01,0.07-0.01,0.16-0.07,0.18c-0.04,0.01-0.07,0-0.11-0.01
	C16.18,11.25,15.93,11.12,15.71,10.17z"/>
</svg>
