<?xml version="1.0" encoding="UTF-8"?>
<svg xmlns="http://www.w3.org/2000/svg" viewBox="0 0 513.89 160.94">
  <defs>
    <style>
      .cls-1 {
        fill: #fff;
      }

      .cls-2, .cls-3 {
        fill: none;
      }

      .cls-3 {
        stroke: #fff;
        stroke-linecap: round;
        stroke-linejoin: round;
        stroke-width: 5px;
      }
    </style>
  </defs>
  <g id="Mountain">
    <g>
      <path class="cls-3" d="M254.15,59.27c-.07-2.08,1.11-3.88,1.35-5.89.04-.37.42-.61.85-.76,1.64-.57,3.17-1.41,4.71-2.19,2.37-1.2,4.69-.61,6.17,1.63,2.38,3.61,4.54,7.35,6.74,11.07,5.71,9.65,11.52,19.23,17.25,28.86,2.29,3.84,4.58,7.68,6.9,11.5.56.93,1.03,1.93.89,3.09"/>
      <path class="cls-3" d="M178.3,107.91c-6.77,1.53-13.57-1.82-20.34-.45"/>
      <path class="cls-3" d="M213.41,107.08c-4.89.02-15.25.44-20.14.38"/>
      <path class="cls-3" d="M306.22,107.46c-8.22,1.54-16.22.54-24.22.54-18-2-37,0-55.27-.66"/>
      <path class="cls-3" d="M172.37,96.22c-1.93,2.48-7,6.92-6.76,10.35"/>
      <path class="cls-3" d="M215.53,77.3c.47-2.3-.53-4.3-1.53-5.3-6-2-11-7-17-6-5,1-6,7-9.83,11.14"/>
      <path class="cls-3" d="M255.62,52.93c-.66-.46-1.2-1.06-1.76-1.62-5.88-5.89-11.77-11.79-17.65-17.68-2.7-2.7-5.31-2.56-7.79.44-8.23,9.95-16.3,20.02-24.43,30.05-.63.78-1.02,1.65-1.46,2.52"/>
      <path class="cls-3" d="M278.72,106.28c-.61-2.67-2.91-3.98-4.74-5.56-4.22-3.63-8.38-7.33-12.61-10.95-3.35-2.87-6.65-5.82-10-8.69-1.22-1.04-2.49-2.06-3.22-3.54-.12-.25-.29-.51-.47-.56-2.98-.82-4.66-3.4-6.89-5.2-3.49-2.82-6.77-5.89-10.18-8.8-2.41-2.06-4.74-1.6-6.76.12-3.26,2.78-6.58,5.49-9.84,8.27-.19.16-.33.38-.59.44"/>
      <path class="cls-3" d="M251.51,67.37c-.53,1.92-1.18,3.8-1.64,5.74-.34,1.44-1.03,2.76-1.89,3.98"/>
    </g>
  </g>
  <g id="llama">
    <g>
      <path class="cls-1" d="M183.47,119.23l-1.18-4.06c.13.81-.13,1.69-.15,2.44-.01.47.2.99.15,1.62-.23,2.73-3.74,3.44-4.77.79l-.13-13.46c-.07-.23-1.84-1.47-2.19-1.8-2.03-1.87-3.89-5.05-5.19-7.51-5.47-10.33-6.23-22.62-4.55-34.06-2.69.43-4.5,1.32-5.36-1.95-.3-1.15-1.1-4.63-1.12-5.67-.02-.79.5-1.78,1.24-2.13,3.68-1.31,7.62-4.11,11.26-5.28,1.6-.51,3.49.14,5.06.56.2-.16-1.47-2.33-1.59-2.62-1.02-2.54,2.14-4.75,4.24-2.32,1.83,2.11,2.82,5.27,1.83,7.97.95,1.14,1.89,2.47,2.42,3.87,1.84,4.91.11,11.9.79,17.08.24,1.84,1.92,3.27,3.75,3.34h38.52c9.43,1.46,11.3,14.14,2.6,18.11v15.17s2.08,6.06,2.08,6.06l-3.77,17.65c-.27.97-1.16,1.63-2.14,1.7-1.22.09-3.88.04-5.11-.07-1.78-.17-2.61-1.81-1.95-3.44.15-.38,1.17-1.29,1.51-1.29h2.73c-1.09-7.43-3.22-15.59-8.96-20.79l-19.68.12c-.28,1.57.28,4.37-.67,5.6-1.43,1.85-4.21.65-4.31-1.58-.14-3.16.4-7.39,1.1-10.49.41-1.83,1.6-6.21,2.77-7.56,1.37-1.58,4.01-.83,4.21,1.26.13,1.32-.54,1.79-.96,2.88-.62,1.62-1.15,3.3-1.41,5.02h13.88c-1.87-2.97-3.06-7.49-2.66-11,.21-1.87,2.41-2.65,3.84-1.48,1.23,1,.74,1.94.88,3.25.26,2.44.83,5.5,2.5,7.39.87.98,2.11,1.51,3.11,2.36,3.81,3.23,6.46,7.82,8.23,12.44.28.73.46,1.67.76,2.34.08.17-.07.27.31.21l.86-4.21c-.34-1.86-1.82-4.11-2.03-5.92-.69-5.99,1.03-14.51-.38-20.14-.46-1.82-2.38-4.19.02-5.59,2.88-1.68,4.23,2.7,4.7,4.7,2.99-2.99.72-7.87-3.39-7.98-11.03.09-22.06-.09-33.08,0-4.12.03-7.58.59-10.63-2.94-3.64-4.22-1.66-13.41-2.14-18.82-.28-3.15-3.25-6.04-6.42-6.14l-8.78,4,.38,1.62c1.33-.02,2.65,0,3.98-.02,1.23-.02,2.57.19,3.76-.36.47-.22.92-.75,1.47-.89,1.4-.36,2.85.57,3.05,1.99.29,2.18-2.35,3.34-4.07,3.77-.49.12-2.38.29-2.49.61-.12,1.62-.49,3.24-.61,4.85-.61,7.9.28,16.96,3.52,24.24,1.54,3.47,4.78,8.78,8.24,10.51,1.54.77,2.87.5,3.52,2.38,1.41,4.05,1.98,8.81,3.31,12.93-.35,4.47.51,9.79.01,14.16-.1.87-.73,1.72-1.61,1.93-.77.18-3.36.15-4.22.07-3.52-.33-2.46-5.61,1.11-4.73v-10.7Z"/>
      <path class="cls-1" d="M209.15,128.3l3.38-11.46c1.37-2.05,4.65-1.03,4.45,1.49-1.42,4.11-2.17,8.97-3.72,12.97-.57,1.48-1.28,1.78-2.83,1.89s-3.82.19-4.54-1.53c-.9-2.15,1.2-3.73,3.26-3.37Z"/>
    </g>
  </g>
  <g id="Layer_5" data-name="Layer 5">
    <g id="Layer_8" data-name="Layer 8">
      <g>
        <rect class="cls-2" x=".73" y="40.67" width="513.16" height="88.57"/>
        <path class="cls-1" d="M15.45,68.13c0-2.62,1.79-4.22,4.67-4.22s4.67,1.6,4.67,4.22v26.81c0,6.4-5.18,11.84-11.58,11.84-7.3,0-12.16-5.95-12.16-10.75,0-2.24,1.47-4.67,4.29-4.67,1.6,0,2.5.77,2.82,1.6.83,2.11,1.02,4.42,4.22,4.42,1.47,0,3.07-1.02,3.07-2.82v-26.43ZM4.12,92.45c-.64,0-1.47.7-1.47,1.73,0,.26.19.64.51.64.51,0,.51-.58,1.02-.77.38-.13.64-.26.64-.83,0-.38-.32-.77-.7-.77ZM16.66,96.1c-.77,0-.9.7-1.6,1.34-.77.64-1.22.45-1.22,1.15,0,.45.32.77.77.77.83,0,2.62-1.41,2.62-2.5,0-.32-.13-.77-.58-.77ZM17.18,67.81c.77,0,.83-.83,1.6-1.34.19-.13.77-.38.77-.77,0-.45-.32-.77-.77-.77-.83,0-2.18,1.02-2.18,2.11,0,.32.13.77.58.77Z"/>
        <path class="cls-1" d="M29.78,68.07c0-2.62,1.79-4.16,4.67-4.16h11.58c2.5,0,4.48,1.98,4.48,4.48s-1.98,4.48-4.48,4.48h-6.91v7.1h6.21c2.5,0,4.48,1.98,4.48,4.48s-1.98,4.48-4.48,4.48h-6.21v8.77h7.81c2.5,0,4.48,1.98,4.48,4.48s-1.98,4.48-4.48,4.48h-12.48c-2.88,0-4.67-1.54-4.67-4.16v-34.43ZM31.51,67.81c.77,0,.83-.83,1.6-1.34.19-.13.77-.38.77-.77,0-.45-.32-.77-.77-.77-.83,0-2.18,1.02-2.18,2.11,0,.32.13.77.58.77Z"/>
        <path class="cls-1" d="M66.65,87.78l2.24-7.17-3.33-11.52c-.13-.51-.13-.77-.13-1.28,0-1.47,1.41-3.9,5.06-3.9,2.37,0,3.65,1.02,4.22,3.33l5.38,20.73,5.57-20.73c.58-2.24,2.11-3.33,4.8-3.33,2.11,0,4.35,2.18,4.35,4.54,0,.26,0,.38-.06.64l-9.92,34.24c-.58,1.92-2.3,3.33-4.67,3.33-2.11,0-3.65-1.09-4.35-3.33l-2.5-7.87-2.3,7.81c-.7,2.3-2.56,3.39-4.35,3.39-1.98,0-3.9-1.22-4.54-3.39l-10.11-33.02c-.06-.32-.32-1.02-.32-1.54,0-2.18,1.6-4.8,4.86-4.8,1.92,0,3.71,1.22,4.29,3.33l5.82,20.54ZM52.82,67.04c0,.45.32.64.9.64.06,0,1.98-1.66,1.98-1.92,0-.32-.06-.83-.51-.83-1.28,0-2.37,1.6-2.37,2.11ZM66.52,67.04c0,.58.7,1.22,1.47.26.77-.96,1.54-1.02,1.54-1.41,0-.45-.26-.96-.7-.96-.83,0-2.3,1.15-2.3,2.11ZM86.61,66.91c0,.58.58,1.41,1.6.19.38-.45.83-.83,1.09-1.02.26-.19.26-.64.13-.96-.06-.19-.26-.32-.51-.32-1.09,0-2.3,1.6-2.3,2.11Z"/>
        <path class="cls-1" d="M97.11,68.07c0-2.62,1.79-4.16,4.67-4.16h11.58c2.5,0,4.48,1.98,4.48,4.48s-1.98,4.48-4.48,4.48h-6.91v7.1h6.21c2.5,0,4.48,1.98,4.48,4.48s-1.98,4.48-4.48,4.48h-6.21v8.77h7.81c2.5,0,4.48,1.98,4.48,4.48s-1.98,4.48-4.48,4.48h-12.48c-2.88,0-4.67-1.54-4.67-4.16v-34.43ZM98.84,67.81c.77,0,.83-.83,1.6-1.34.19-.13.77-.38.77-.77,0-.45-.32-.77-.77-.77-.83,0-2.18,1.02-2.18,2.11,0,.32.13.77.58.77Z"/>
        <path class="cls-1" d="M121.62,68.13c0-2.62,1.79-4.22,4.67-4.22s4.67,1.6,4.67,4.22v29.57h7.55c2.5,0,4.48,1.98,4.48,4.48s-1.98,4.48-4.48,4.48h-12.22c-2.88,0-4.67-1.54-4.67-4.16v-34.37ZM123.35,67.81c.77,0,.83-.83,1.6-1.34.19-.13.77-.38.77-.77,0-.45-.32-.77-.77-.77-.83,0-2.18,1.02-2.18,2.11,0,.32.13.77.58.77Z"/>
        <path class="cls-1" d="M325.01,72.87v29.63c0,2.62-1.79,4.16-4.67,4.16s-4.67-1.54-4.67-4.16v-29.63h-3.65c-2.5,0-4.48-1.98-4.48-4.48s1.98-4.48,4.48-4.48h16.77c2.5,0,4.48,1.98,4.48,4.48s-1.98,4.48-4.48,4.48h-3.78ZM309.39,67.81c.77,0,.9-.83,1.66-1.34.19-.13.77-.38.77-.77,0-.45-.32-.77-.77-.77-.77,0-2.24,1.09-2.24,2.11,0,.32.13.77.58.77Z"/>
        <path class="cls-1" d="M360.72,76.7c0,6.14-3.26,9.47-6.14,11.2l6.53,12.1c1.6,2.94-.64,6.66-4.29,6.66-1.79,0-3.2-.77-3.97-2.24l-7.68-14.72v12.8c0,2.62-1.79,4.16-4.67,4.16s-4.67-1.54-4.67-4.16v-34.37c0-2.62,1.79-4.22,4.67-4.22h8.64c5.89,0,11.58,5.38,11.58,12.8ZM337.55,67.81c.77,0,.83-.83,1.6-1.34.19-.13.77-.38.77-.77,0-.45-.32-.77-.77-.77-.83,0-2.18,1.02-2.18,2.11,0,.32.13.77.58.77ZM345.17,80.74c0,.26.13.38.38.38h2.75c2.24,0,3.65-1.79,3.65-4.1,0-2.56-1.66-4.35-3.65-4.35h-2.75c-.26,0-.38.13-.38.38v7.68ZM349.9,82.08c0,.45.32.7.83.64.38-.06,1.34-.45,1.92-1.09.51-.58.9-1.28.96-1.66.06-.51-.13-.96-.64-.96-.26,0-.45.19-.64.51-.26.45-.58.96-1.02,1.34-.26.26-.7.45-.96.58s-.45.32-.45.64Z"/>
        <path class="cls-1" d="M373.26,67.94c.7-2.62,2.62-4.29,5.25-4.29s4.54,1.66,5.25,4.29l9.22,33.09s.19.58.19,1.09c0,2.56-2.05,4.54-4.61,4.54-2.24,0-4.03-1.47-4.48-3.58l-1.09-4.74h-8.9l-1.15,4.74c-.51,2.11-2.24,3.58-4.48,3.58-2.56,0-4.54-1.98-4.54-4.54,0-.51.19-1.09.19-1.09l9.15-33.09ZM365.26,100.06c-.06.26.13.77.7.77.26,0,.51-.13.58-.32l.38-1.22c.13-.38-.32-.64-.7-.64-.19,0-.58.06-.64.26l-.32,1.15ZM374.99,66.59c0,.45.13.96.77.96.38,0,.77-.51,1.28-.96.51-.51,1.02-.7,1.02-1.02,0-.64-.32-.9-.7-.9-.77,0-2.37,1.22-2.37,1.92ZM376.08,90.14h4.93l-2.5-10.24-2.43,10.24Z"/>
        <path class="cls-1" d="M403.66,106.66c-2.88,0-3.97-1.66-4.74-4.22l-9.54-32.06c-.13-.51-.32-1.02-.32-1.86,0-2.3,1.92-4.61,4.67-4.61,2.11,0,3.97,1.47,4.42,3.2l5.5,20.42,5.5-20.42c.45-1.73,2.3-3.2,4.42-3.2,2.75,0,4.67,2.3,4.67,4.61,0,.83-.19,1.34-.32,1.86l-9.54,32.06c-.77,2.56-1.86,4.22-4.74,4.22ZM391.05,67.87c.77,0,.83-.83,1.6-1.34.19-.13.77-.38.77-.77,0-.45-.32-.77-.77-.77-.83,0-2.18,1.02-2.18,2.11,0,.32.13.77.58.77ZM410.89,67.87c.77,0,.83-.83,1.6-1.34.19-.13.77-.38.77-.77,0-.45-.32-.77-.77-.77-.83,0-2.18,1.02-2.18,2.11,0,.32.13.77.58.77Z"/>
        <path class="cls-1" d="M420.69,68.07c0-2.62,1.79-4.16,4.67-4.16h11.58c2.5,0,4.48,1.98,4.48,4.48s-1.98,4.48-4.48,4.48h-6.91v7.1h6.21c2.5,0,4.48,1.98,4.48,4.48s-1.98,4.48-4.48,4.48h-6.21v8.77h7.81c2.5,0,4.48,1.98,4.48,4.48s-1.98,4.48-4.48,4.48h-12.48c-2.88,0-4.67-1.54-4.67-4.16v-34.43ZM422.41,67.81c.77,0,.83-.83,1.6-1.34.19-.13.77-.38.77-.77,0-.45-.32-.77-.77-.77-.83,0-2.18,1.02-2.18,2.11,0,.32.13.77.58.77Z"/>
        <path class="cls-1" d="M445.2,68.13c0-2.62,1.79-4.22,4.67-4.22s4.67,1.6,4.67,4.22v29.57h7.55c2.5,0,4.48,1.98,4.48,4.48s-1.98,4.48-4.48,4.48h-12.22c-2.88,0-4.67-1.54-4.67-4.16v-34.37ZM446.93,67.81c.77,0,.83-.83,1.6-1.34.19-.13.77-.38.77-.77,0-.45-.32-.77-.77-.77-.83,0-2.18,1.02-2.18,2.11,0,.32.13.77.58.77Z"/>
        <path class="cls-1" d="M492.87,93.22c0,7.3-5.12,13.57-13.05,13.57s-12.61-6.91-12.61-10.62c0-2.11,1.79-4.48,4.48-4.48,2.3,0,3.33,1.02,4.29,3.07.83,1.79,1.98,3.46,4.1,3.46s4.16-1.73,4.16-4.22c0-4.42-3.01-5.31-6.78-6.59-5.44-1.86-9.09-5.12-9.09-12.29,0-5.82,5.44-11.33,11.97-11.33,1.6,0,3.78.38,5.76,1.47,2.62,1.41,4.8,3.46,4.8,6.02,0,2.88-2.18,4.42-4.42,4.42-1.54,0-2.5-.64-3.33-1.54-.83-.83-1.66-1.66-2.69-1.66-1.98,0-3.33,1.86-3.33,3.26,0,3.33,4.16,4.03,6.85,5.06,6.21,2.37,8.89,6.21,8.89,12.42ZM470.41,92.83c-.58.06-1.73.96-1.73,1.79,0,.32.26.51.51.51.64,0,.9-.32,1.22-.64s.77-.45.77-1.02c0-.38-.38-.7-.77-.64ZM470.09,71.78c0,.51,0,1.02.83,1.02.32,0,.58-.58.7-.77.96-1.73,1.92-3.58,5.06-4.86.96-.38,1.02-.64,1.02-1.28,0-.32-.38-.45-.7-.45-2.94,0-6.91,4.74-6.91,6.34ZM481.87,99.42c.06.19.26.51.58.51,1.28,0,3.65-2.18,3.65-3.46,0-.45-.26-.9-.77-.9-.32,0-.51.19-.77.64-.19.32-.58.96-1.09,1.47-.58.58-1.79,1.02-1.6,1.73Z"/>
      </g>
    </g>
  </g>
</svg>