<?xml version="1.0" encoding="UTF-8"?>
<svg xmlns="http://www.w3.org/2000/svg" viewBox="0 0 513.89 160">
  <defs>
    <style>
      .cls-1 {
        stroke: #5bffe7;
      }

      .cls-1, .cls-2, .cls-3, .cls-4, .cls-5 {
        fill: none;
      }

      .cls-1, .cls-2, .cls-6, .cls-4, .cls-5 {
        stroke-miterlimit: 10;
      }

      .cls-1, .cls-2, .cls-4, .cls-5 {
        stroke-width: .75px;
      }

      .cls-2 {
        stroke: #e72eff;
      }

      .cls-7 {
        fill: #fff;
      }

      .cls-6 {
        fill: #a46fff;
        stroke: #a46fff;
      }

      .cls-4 {
        stroke: #ff45cd;
      }

      .cls-5 {
        stroke: #9945ff;
      }
    </style>
  </defs>
  <g id="Layer_2" data-name="Layer 2">
    <g id="Layer_9" data-name="Layer 9">
      <path class="cls-6" d="M113.68,36.92v-12.84s3.67-16.28,4.59,11.46l19.26,4.13s10.09,9.86-4.13,9.63-8.71,0-8.71,0l-16.28,73.14-7.34,2.06v4.13s11.06,3.45,5.04,3.67l-12.84.46-3.21-6.42-35.77,1.38-.92,3.9s11.24,3.21,5.73,3.67c-5.5.46-12.38,0-12.38,0,0,0-8.71-14.68-10.32-44.94,0,0-8.71,6.88-14.68,4.59,0,0,10.09-11.3,18.11-14.94,0,0,27.29-6.16,61.22-4.1l12.61-38.98Z"/>
    </g>
    <path class="cls-7" d="M111.68,36.92v-12.84s3.67-16.28,4.59,11.46l19.26,4.13s10.09,9.86-4.13,9.63-8.71,0-8.71,0l-16.28,73.14-7.34,2.06v4.13s11.06,3.45,5.04,3.67l-12.84.46-3.21-6.42-35.77,1.38-.92,3.9s11.24,3.21,5.73,3.67-12.38,0-12.38,0c0,0-8.71-14.68-10.32-44.94,0,0-8.71,6.88-14.68,4.59,0,0,10.09-11.3,18.11-14.94,0,0,27.29-6.16,61.22-4.1l12.61-38.98Z"/>
    <g id="Layer_4" data-name="Layer 4">
      <path class="cls-1" d="M58.15,128.04c-.34-.88-1.07-1.54-1.67-2.27s-1.1-1.68-.83-2.59c.17-.57.61-1.02,1.05-1.42,1-.89,2.11-1.68,2.93-2.73s1.32-2.49.86-3.74c-.52-1.43-2.05-2.18-3.45-2.79.07-2.05,2.14-3.54,2.46-5.56.2-1.28-.35-2.58-1.18-3.56s-1.92-1.72-2.99-2.44"/>
      <path class="cls-4" d="M74.02,127.34c-.92-1.37-1.78-2.79-2.58-4.24-.15-.28-.31-.57-.32-.89-.04-.95,1.07-1.44,1.81-2.03,1.52-1.21,1.65-3.79.25-5.14-1-.97-2.62-1.39-3.09-2.7-.52-1.45.73-2.88,1.88-3.91s2.42-2.43,1.94-3.89c-.51-1.54-2.69-2.04-3.18-3.59"/>
      <path class="cls-5" d="M86.43,126.67c-.69-1.62-1.16-3.35-1.37-5.1-.07-.53-.1-1.1.11-1.59.6-1.42,2.8-1.5,3.53-2.86.68-1.27-.32-2.77-1.31-3.83s-2.1-2.41-1.63-3.78c.36-1.03,1.5-1.59,2.01-2.56.48-.92.3-2.08-.21-2.99s-1.3-1.62-2.08-2.31"/>
      <g id="Layer_3" data-name="Layer 3">
        <path class="cls-2" d="M119.13,38.89c-1.53-.46-3.3.08-4.37,1.26s-1.44,2.95-.98,4.49c.33,1.11,1.1,2.13,2.17,2.57.73.3,1.54.32,2.32.32.66,0,1.35-.02,1.91-.38.79-.51,1.04-1.56,1.13-2.5.06-.68.07-1.41-.32-1.98-.29-.43-.77-.7-1.26-.9-.61-.25-1.32-.42-1.94-.18-.86.33-1.27,1.5-.8,2.3"/>
      </g>
    </g>
  </g>
  <g id="Layer_5" data-name="Layer 5">
    <g>
      <rect class="cls-3" x="126.89" y="47.54" width="372.44" height="88.57"/>
      <path class="cls-6" d="M141.61,75c0-2.62,1.79-4.22,4.67-4.22s4.67,1.6,4.67,4.22v26.81c0,6.4-5.18,11.84-11.58,11.84-7.3,0-12.16-5.95-12.16-10.75,0-2.24,1.47-4.67,4.29-4.67,1.6,0,2.5.77,2.82,1.6.83,2.11,1.02,4.42,4.22,4.42,1.47,0,3.07-1.02,3.07-2.82v-26.43ZM130.28,99.31c-.64,0-1.47.7-1.47,1.73,0,.26.19.64.51.64.51,0,.51-.58,1.02-.77.38-.13.64-.26.64-.83,0-.38-.32-.77-.7-.77ZM142.82,102.96c-.77,0-.9.7-1.6,1.34-.77.64-1.22.45-1.22,1.15,0,.45.32.77.77.77.83,0,2.62-1.41,2.62-2.5,0-.32-.13-.77-.58-.77ZM143.34,74.68c.77,0,.83-.83,1.6-1.34.19-.13.77-.38.77-.77,0-.45-.32-.77-.77-.77-.83,0-2.18,1.02-2.18,2.11,0,.32.13.77.58.77Z"/>
      <path class="cls-6" d="M155.94,74.93c0-2.62,1.79-4.16,4.67-4.16h11.58c2.5,0,4.48,1.98,4.48,4.48s-1.98,4.48-4.48,4.48h-6.91v7.1h6.21c2.5,0,4.48,1.98,4.48,4.48s-1.98,4.48-4.48,4.48h-6.21v8.77h7.81c2.5,0,4.48,1.98,4.48,4.48s-1.98,4.48-4.48,4.48h-12.48c-2.88,0-4.67-1.54-4.67-4.16v-34.43ZM157.67,74.68c.77,0,.83-.83,1.6-1.34.19-.13.77-.38.77-.77,0-.45-.32-.77-.77-.77-.83,0-2.18,1.02-2.18,2.11,0,.32.13.77.58.77Z"/>
      <path class="cls-6" d="M192.81,94.64l2.24-7.17-3.33-11.52c-.13-.51-.13-.77-.13-1.28,0-1.47,1.41-3.9,5.06-3.9,2.37,0,3.65,1.02,4.22,3.33l5.38,20.73,5.57-20.73c.58-2.24,2.11-3.33,4.8-3.33,2.11,0,4.35,2.18,4.35,4.54,0,.26,0,.38-.06.64l-9.92,34.24c-.58,1.92-2.3,3.33-4.67,3.33-2.11,0-3.65-1.09-4.35-3.33l-2.5-7.87-2.3,7.81c-.7,2.3-2.56,3.39-4.35,3.39-1.98,0-3.9-1.22-4.54-3.39l-10.11-33.02c-.06-.32-.32-1.02-.32-1.54,0-2.18,1.6-4.8,4.86-4.8,1.92,0,3.71,1.22,4.29,3.33l5.82,20.54ZM178.98,73.91c0,.45.32.64.9.64.06,0,1.98-1.66,1.98-1.92,0-.32-.06-.83-.51-.83-1.28,0-2.37,1.6-2.37,2.11ZM192.68,73.91c0,.58.7,1.22,1.47.26.77-.96,1.54-1.02,1.54-1.41,0-.45-.26-.96-.7-.96-.83,0-2.3,1.15-2.3,2.11ZM212.77,73.78c0,.58.58,1.41,1.6.19.38-.45.83-.83,1.09-1.02.26-.19.26-.64.13-.96-.06-.19-.26-.32-.51-.32-1.09,0-2.3,1.6-2.3,2.11Z"/>
      <path class="cls-6" d="M223.27,74.93c0-2.62,1.79-4.16,4.67-4.16h11.58c2.5,0,4.48,1.98,4.48,4.48s-1.98,4.48-4.48,4.48h-6.91v7.1h6.21c2.5,0,4.48,1.98,4.48,4.48s-1.98,4.48-4.48,4.48h-6.21v8.77h7.81c2.5,0,4.48,1.98,4.48,4.48s-1.98,4.48-4.48,4.48h-12.48c-2.88,0-4.67-1.54-4.67-4.16v-34.43ZM225,74.68c.77,0,.83-.83,1.6-1.34.19-.13.77-.38.77-.77,0-.45-.32-.77-.77-.77-.83,0-2.18,1.02-2.18,2.11,0,.32.13.77.58.77Z"/>
      <path class="cls-6" d="M247.78,75c0-2.62,1.79-4.22,4.67-4.22s4.67,1.6,4.67,4.22v29.57h7.55c2.5,0,4.48,1.98,4.48,4.48s-1.98,4.48-4.48,4.48h-12.22c-2.88,0-4.67-1.54-4.67-4.16v-34.37ZM249.51,74.68c.77,0,.83-.83,1.6-1.34.19-.13.77-.38.77-.77,0-.45-.32-.77-.77-.77-.83,0-2.18,1.02-2.18,2.11,0,.32.13.77.58.77Z"/>
      <path class="cls-6" d="M298.15,79.73v29.63c0,2.62-1.79,4.16-4.67,4.16s-4.67-1.54-4.67-4.16v-29.63h-3.65c-2.5,0-4.48-1.98-4.48-4.48s1.98-4.48,4.48-4.48h16.77c2.5,0,4.48,1.98,4.48,4.48s-1.98,4.48-4.48,4.48h-3.78ZM282.53,74.68c.77,0,.9-.83,1.66-1.34.19-.13.77-.38.77-.77,0-.45-.32-.77-.77-.77-.77,0-2.24,1.09-2.24,2.11,0,.32.13.77.58.77Z"/>
      <path class="cls-6" d="M333.86,83.57c0,6.14-3.26,9.47-6.14,11.2l6.53,12.1c1.6,2.94-.64,6.66-4.29,6.66-1.79,0-3.2-.77-3.97-2.24l-7.68-14.72v12.8c0,2.62-1.79,4.16-4.67,4.16s-4.67-1.54-4.67-4.16v-34.37c0-2.62,1.79-4.22,4.67-4.22h8.64c5.89,0,11.58,5.38,11.58,12.8ZM310.69,74.68c.77,0,.83-.83,1.6-1.34.19-.13.77-.38.77-.77,0-.45-.32-.77-.77-.77-.83,0-2.18,1.02-2.18,2.11,0,.32.13.77.58.77ZM318.31,87.6c0,.26.13.38.38.38h2.75c2.24,0,3.65-1.79,3.65-4.1,0-2.56-1.66-4.35-3.65-4.35h-2.75c-.26,0-.38.13-.38.38v7.68ZM323.04,88.95c0,.45.32.7.83.64.38-.06,1.34-.45,1.92-1.09.51-.58.9-1.28.96-1.66.06-.51-.13-.96-.64-.96-.26,0-.45.19-.64.51-.26.45-.58.96-1.02,1.34-.26.26-.7.45-.96.58s-.45.32-.45.64Z"/>
      <path class="cls-6" d="M346.4,74.8c.7-2.62,2.62-4.29,5.25-4.29s4.54,1.66,5.25,4.29l9.22,33.09s.19.58.19,1.09c0,2.56-2.05,4.54-4.61,4.54-2.24,0-4.03-1.47-4.48-3.58l-1.09-4.74h-8.9l-1.15,4.74c-.51,2.11-2.24,3.58-4.48,3.58-2.56,0-4.54-1.98-4.54-4.54,0-.51.19-1.09.19-1.09l9.15-33.09ZM338.4,106.93c-.06.26.13.77.7.77.26,0,.51-.13.58-.32l.38-1.22c.13-.38-.32-.64-.7-.64-.19,0-.58.06-.64.26l-.32,1.15ZM348.13,73.46c0,.45.13.96.77.96.38,0,.77-.51,1.28-.96.51-.51,1.02-.7,1.02-1.02,0-.64-.32-.9-.7-.9-.77,0-2.37,1.22-2.37,1.92ZM349.22,97.01h4.93l-2.5-10.24-2.43,10.24Z"/>
      <path class="cls-6" d="M376.8,113.52c-2.88,0-3.97-1.66-4.74-4.22l-9.54-32.06c-.13-.51-.32-1.02-.32-1.86,0-2.3,1.92-4.61,4.67-4.61,2.11,0,3.97,1.47,4.42,3.2l5.5,20.41,5.5-20.41c.45-1.73,2.3-3.2,4.42-3.2,2.75,0,4.67,2.3,4.67,4.61,0,.83-.19,1.34-.32,1.86l-9.54,32.06c-.77,2.56-1.86,4.22-4.74,4.22ZM364.2,74.74c.77,0,.83-.83,1.6-1.34.19-.13.77-.38.77-.77,0-.45-.32-.77-.77-.77-.83,0-2.18,1.02-2.18,2.11,0,.32.13.77.58.77ZM384.04,74.74c.77,0,.83-.83,1.6-1.34.19-.13.77-.38.77-.77,0-.45-.32-.77-.77-.77-.83,0-2.18,1.02-2.18,2.11,0,.32.13.77.58.77Z"/>
      <path class="cls-6" d="M393.83,74.93c0-2.62,1.79-4.16,4.67-4.16h11.58c2.5,0,4.48,1.98,4.48,4.48s-1.98,4.48-4.48,4.48h-6.91v7.1h6.21c2.5,0,4.48,1.98,4.48,4.48s-1.98,4.48-4.48,4.48h-6.21v8.77h7.81c2.5,0,4.48,1.98,4.48,4.48s-1.98,4.48-4.48,4.48h-12.48c-2.88,0-4.67-1.54-4.67-4.16v-34.43ZM395.56,74.68c.77,0,.83-.83,1.6-1.34.19-.13.77-.38.77-.77,0-.45-.32-.77-.77-.77-.83,0-2.18,1.02-2.18,2.11,0,.32.13.77.58.77Z"/>
      <path class="cls-6" d="M418.34,75c0-2.62,1.79-4.22,4.67-4.22s4.67,1.6,4.67,4.22v29.57h7.55c2.5,0,4.48,1.98,4.48,4.48s-1.98,4.48-4.48,4.48h-12.22c-2.88,0-4.67-1.54-4.67-4.16v-34.37ZM420.07,74.68c.77,0,.83-.83,1.6-1.34.19-.13.77-.38.77-.77,0-.45-.32-.77-.77-.77-.83,0-2.18,1.02-2.18,2.11,0,.32.13.77.58.77Z"/>
      <path class="cls-6" d="M466.02,100.08c0,7.3-5.12,13.57-13.05,13.57s-12.61-6.91-12.61-10.62c0-2.11,1.79-4.48,4.48-4.48,2.3,0,3.33,1.02,4.29,3.07.83,1.79,1.98,3.46,4.1,3.46s4.16-1.73,4.16-4.22c0-4.42-3.01-5.31-6.78-6.59-5.44-1.86-9.09-5.12-9.09-12.29,0-5.82,5.44-11.33,11.97-11.33,1.6,0,3.78.38,5.76,1.47,2.62,1.41,4.8,3.46,4.8,6.02,0,2.88-2.18,4.42-4.42,4.42-1.54,0-2.5-.64-3.33-1.54-.83-.83-1.66-1.66-2.69-1.66-1.98,0-3.33,1.86-3.33,3.26,0,3.33,4.16,4.03,6.85,5.06,6.21,2.37,8.9,6.21,8.9,12.42ZM443.55,99.7c-.58.06-1.73.96-1.73,1.79,0,.32.26.51.51.51.64,0,.9-.32,1.22-.64s.77-.45.77-1.02c0-.38-.38-.7-.77-.64ZM443.23,78.64c0,.51,0,1.02.83,1.02.32,0,.58-.58.7-.77.96-1.73,1.92-3.58,5.06-4.86.96-.38,1.02-.64,1.02-1.28,0-.32-.38-.45-.7-.45-2.94,0-6.91,4.74-6.91,6.34ZM455.01,106.29c.06.19.26.51.58.51,1.28,0,3.65-2.18,3.65-3.46,0-.45-.26-.9-.77-.9-.32,0-.51.19-.77.64-.19.32-.58.96-1.09,1.47-.58.58-1.79,1.02-1.6,1.73Z"/>
    </g>
    <g id="Layer_8" data-name="Layer 8">
      <g>
        <rect class="cls-3" x="125.47" y="47.71" width="372.44" height="88.57"/>
        <path class="cls-7" d="M140.19,75.17c0-2.62,1.79-4.22,4.67-4.22s4.67,1.6,4.67,4.22v26.81c0,6.4-5.18,11.84-11.58,11.84-7.3,0-12.16-5.95-12.16-10.75,0-2.24,1.47-4.67,4.29-4.67,1.6,0,2.5.77,2.82,1.6.83,2.11,1.02,4.42,4.22,4.42,1.47,0,3.07-1.02,3.07-2.82v-26.43ZM128.86,99.49c-.64,0-1.47.7-1.47,1.73,0,.26.19.64.51.64.51,0,.51-.58,1.03-.77.38-.13.64-.26.64-.83,0-.38-.32-.77-.7-.77ZM141.4,103.14c-.77,0-.9.7-1.6,1.34-.77.64-1.22.45-1.22,1.15,0,.45.32.77.77.77.83,0,2.62-1.41,2.62-2.5,0-.32-.13-.77-.58-.77ZM141.91,74.85c.77,0,.83-.83,1.6-1.34.19-.13.77-.38.77-.77,0-.45-.32-.77-.77-.77-.83,0-2.18,1.02-2.18,2.11,0,.32.13.77.58.77Z"/>
        <path class="cls-7" d="M154.52,75.11c0-2.62,1.79-4.16,4.67-4.16h11.58c2.5,0,4.48,1.98,4.48,4.48s-1.98,4.48-4.48,4.48h-6.91v7.1h6.21c2.5,0,4.48,1.98,4.48,4.48s-1.98,4.48-4.48,4.48h-6.21v8.77h7.81c2.49,0,4.48,1.98,4.48,4.48s-1.98,4.48-4.48,4.48h-12.48c-2.88,0-4.67-1.54-4.67-4.16v-34.43ZM156.25,74.85c.77,0,.83-.83,1.6-1.34.19-.13.77-.38.77-.77,0-.45-.32-.77-.77-.77-.83,0-2.18,1.02-2.18,2.11,0,.32.13.77.58.77Z"/>
        <path class="cls-7" d="M191.38,94.82l2.24-7.17-3.33-11.52c-.13-.51-.13-.77-.13-1.28,0-1.47,1.41-3.9,5.05-3.9,2.37,0,3.65,1.02,4.22,3.33l5.38,20.73,5.57-20.73c.58-2.24,2.11-3.33,4.8-3.33,2.11,0,4.35,2.18,4.35,4.54,0,.26,0,.38-.06.64l-9.92,34.24c-.58,1.92-2.3,3.33-4.67,3.33-2.11,0-3.65-1.09-4.35-3.33l-2.5-7.87-2.3,7.81c-.7,2.3-2.56,3.39-4.35,3.39-1.98,0-3.9-1.22-4.54-3.39l-10.11-33.02c-.06-.32-.32-1.02-.32-1.54,0-2.18,1.6-4.8,4.86-4.8,1.92,0,3.71,1.22,4.29,3.33l5.82,20.54ZM177.56,74.08c0,.45.32.64.89.64.06,0,1.98-1.66,1.98-1.92,0-.32-.06-.83-.51-.83-1.28,0-2.37,1.6-2.37,2.11ZM191.26,74.08c0,.58.7,1.22,1.47.26.77-.96,1.54-1.02,1.54-1.41,0-.45-.26-.96-.71-.96-.83,0-2.3,1.15-2.3,2.11ZM211.35,73.96c0,.58.58,1.41,1.6.19.38-.45.83-.83,1.09-1.02.26-.19.26-.64.13-.96-.06-.19-.26-.32-.51-.32-1.09,0-2.3,1.6-2.3,2.11Z"/>
        <path class="cls-7" d="M221.85,75.11c0-2.62,1.79-4.16,4.67-4.16h11.58c2.5,0,4.48,1.98,4.48,4.48s-1.98,4.48-4.48,4.48h-6.91v7.1h6.21c2.5,0,4.48,1.98,4.48,4.48s-1.98,4.48-4.48,4.48h-6.21v8.77h7.81c2.5,0,4.48,1.98,4.48,4.48s-1.98,4.48-4.48,4.48h-12.48c-2.88,0-4.67-1.54-4.67-4.16v-34.43ZM223.58,74.85c.77,0,.83-.83,1.6-1.34.19-.13.77-.38.77-.77,0-.45-.32-.77-.77-.77-.83,0-2.18,1.02-2.18,2.11,0,.32.13.77.58.77Z"/>
        <path class="cls-7" d="M246.36,75.17c0-2.62,1.79-4.22,4.67-4.22s4.67,1.6,4.67,4.22v29.57h7.55c2.5,0,4.48,1.98,4.48,4.48s-1.98,4.48-4.48,4.48h-12.22c-2.88,0-4.67-1.54-4.67-4.16v-34.37ZM248.09,74.85c.77,0,.83-.83,1.6-1.34.19-.13.77-.38.77-.77,0-.45-.32-.77-.77-.77-.83,0-2.18,1.02-2.18,2.11,0,.32.13.77.58.77Z"/>
        <path class="cls-7" d="M296.73,79.91v29.63c0,2.62-1.79,4.16-4.67,4.16s-4.67-1.54-4.67-4.16v-29.63h-3.65c-2.5,0-4.48-1.98-4.48-4.48s1.98-4.48,4.48-4.48h16.77c2.5,0,4.48,1.98,4.48,4.48s-1.98,4.48-4.48,4.48h-3.78ZM281.11,74.85c.77,0,.9-.83,1.66-1.34.19-.13.77-.38.77-.77,0-.45-.32-.77-.77-.77-.77,0-2.24,1.09-2.24,2.11,0,.32.13.77.57.77Z"/>
        <path class="cls-7" d="M332.44,83.75c0,6.14-3.26,9.47-6.14,11.2l6.53,12.1c1.6,2.94-.64,6.66-4.29,6.66-1.79,0-3.2-.77-3.97-2.24l-7.68-14.72v12.8c0,2.62-1.79,4.16-4.67,4.16s-4.67-1.54-4.67-4.16v-34.37c0-2.62,1.79-4.22,4.67-4.22h8.64c5.89,0,11.58,5.38,11.58,12.8ZM309.27,74.85c.77,0,.83-.83,1.6-1.34.19-.13.77-.38.77-.77,0-.45-.32-.77-.77-.77-.83,0-2.18,1.02-2.18,2.11,0,.32.13.77.58.77ZM316.89,87.78c0,.26.13.38.38.38h2.75c2.24,0,3.65-1.79,3.65-4.1,0-2.56-1.66-4.35-3.65-4.35h-2.75c-.26,0-.38.13-.38.38v7.68ZM321.62,89.12c0,.45.32.7.83.64.38-.06,1.34-.45,1.92-1.09.51-.58.89-1.28.96-1.66.06-.51-.13-.96-.64-.96-.26,0-.45.19-.64.51-.26.45-.58.96-1.02,1.34-.26.26-.71.45-.96.58s-.45.32-.45.64Z"/>
        <path class="cls-7" d="M344.98,74.98c.71-2.62,2.62-4.29,5.25-4.29s4.54,1.66,5.25,4.29l9.21,33.09s.19.58.19,1.09c0,2.56-2.05,4.54-4.61,4.54-2.24,0-4.03-1.47-4.48-3.58l-1.09-4.74h-8.9l-1.15,4.74c-.51,2.11-2.24,3.58-4.48,3.58-2.56,0-4.54-1.98-4.54-4.54,0-.51.19-1.09.19-1.09l9.15-33.09ZM336.98,107.1c-.06.26.13.77.71.77.26,0,.51-.13.58-.32l.38-1.22c.13-.38-.32-.64-.7-.64-.19,0-.58.06-.64.26l-.32,1.15ZM346.71,73.64c0,.45.13.96.77.96.38,0,.77-.51,1.28-.96.51-.51,1.03-.7,1.03-1.02,0-.64-.32-.9-.71-.9-.77,0-2.37,1.22-2.37,1.92ZM347.8,97.19h4.93l-2.5-10.24-2.43,10.24Z"/>
        <path class="cls-7" d="M375.38,113.7c-2.88,0-3.97-1.66-4.73-4.22l-9.54-32.06c-.13-.51-.32-1.02-.32-1.86,0-2.3,1.92-4.61,4.67-4.61,2.11,0,3.97,1.47,4.42,3.2l5.5,20.41,5.5-20.41c.45-1.73,2.3-3.2,4.42-3.2,2.75,0,4.67,2.3,4.67,4.61,0,.83-.19,1.34-.32,1.86l-9.54,32.06c-.77,2.56-1.86,4.22-4.74,4.22ZM362.78,74.92c.77,0,.83-.83,1.6-1.34.19-.13.77-.38.77-.77,0-.45-.32-.77-.77-.77-.83,0-2.18,1.02-2.18,2.11,0,.32.13.77.58.77ZM382.61,74.92c.77,0,.83-.83,1.6-1.34.19-.13.77-.38.77-.77,0-.45-.32-.77-.77-.77-.83,0-2.18,1.02-2.18,2.11,0,.32.13.77.58.77Z"/>
        <path class="cls-7" d="M392.41,75.11c0-2.62,1.79-4.16,4.67-4.16h11.58c2.5,0,4.48,1.98,4.48,4.48s-1.98,4.48-4.48,4.48h-6.91v7.1h6.21c2.5,0,4.48,1.98,4.48,4.48s-1.98,4.48-4.48,4.48h-6.21v8.77h7.81c2.5,0,4.48,1.98,4.48,4.48s-1.98,4.48-4.48,4.48h-12.48c-2.88,0-4.67-1.54-4.67-4.16v-34.43ZM394.13,74.85c.77,0,.83-.83,1.6-1.34.19-.13.77-.38.77-.77,0-.45-.32-.77-.77-.77-.83,0-2.18,1.02-2.18,2.11,0,.32.13.77.58.77Z"/>
        <path class="cls-7" d="M416.92,75.17c0-2.62,1.79-4.22,4.67-4.22s4.67,1.6,4.67,4.22v29.57h7.55c2.5,0,4.48,1.98,4.48,4.48s-1.98,4.48-4.48,4.48h-12.22c-2.88,0-4.67-1.54-4.67-4.16v-34.37ZM418.65,74.85c.77,0,.83-.83,1.6-1.34.19-.13.77-.38.77-.77,0-.45-.32-.77-.77-.77-.83,0-2.18,1.02-2.18,2.11,0,.32.13.77.58.77Z"/>
        <path class="cls-7" d="M464.6,100.26c0,7.3-5.12,13.57-13.05,13.57s-12.61-6.91-12.61-10.62c0-2.11,1.79-4.48,4.48-4.48,2.3,0,3.33,1.02,4.29,3.07.83,1.79,1.98,3.46,4.1,3.46s4.16-1.73,4.16-4.22c0-4.42-3.01-5.31-6.79-6.59-5.44-1.86-9.09-5.12-9.09-12.29,0-5.82,5.44-11.33,11.97-11.33,1.6,0,3.78.38,5.76,1.47,2.62,1.41,4.8,3.46,4.8,6.02,0,2.88-2.18,4.42-4.42,4.42-1.54,0-2.5-.64-3.33-1.54-.83-.83-1.66-1.66-2.69-1.66-1.98,0-3.33,1.86-3.33,3.26,0,3.33,4.16,4.03,6.85,5.06,6.21,2.37,8.9,6.21,8.9,12.42ZM442.13,99.87c-.58.06-1.73.96-1.73,1.79,0,.32.26.51.51.51.64,0,.89-.32,1.21-.64s.77-.45.77-1.02c0-.38-.38-.7-.77-.64ZM441.81,78.82c0,.51,0,1.02.83,1.02.32,0,.58-.58.71-.77.96-1.73,1.92-3.58,5.05-4.86.96-.38,1.02-.64,1.02-1.28,0-.32-.38-.45-.7-.45-2.94,0-6.91,4.74-6.91,6.34ZM453.59,106.46c.06.19.26.51.58.51,1.28,0,3.65-2.18,3.65-3.46,0-.45-.26-.9-.77-.9-.32,0-.51.19-.77.64-.19.32-.58.96-1.09,1.47-.58.58-1.79,1.02-1.6,1.73Z"/>
      </g>
    </g>
  </g>
</svg>