<?xml version="1.0" encoding="UTF-8"?>
<svg xmlns="http://www.w3.org/2000/svg" viewBox="0 0 526.89 217.11">
  <defs>
    <style>
      .cls-1, .cls-2 {
        fill: none;
      }

      .cls-3, .cls-2 {
        stroke: #000;
        stroke-miterlimit: 10;
      }

      .cls-2 {
        stroke-width: 5px;
      }
    </style>
  </defs>
  <g id="Mountain">
    <g>
      <path class="cls-2" d="M254.15,115.43c-.07-2.08,1.11-3.88,1.35-5.89.04-.37.42-.61.85-.76,1.64-.57,3.17-1.41,4.71-2.19,2.37-1.2,4.69-.61,6.17,1.63,2.38,3.61,4.54,7.35,6.74,11.07,5.71,9.65,11.52,19.23,17.25,28.86,2.29,3.84,4.58,7.68,6.9,11.5.56.93,1.03,1.93.89,3.09"/>
      <path class="cls-2" d="M178.3,164.07c-6.77,1.53-13.57-1.82-20.34-.45"/>
      <path class="cls-2" d="M213.41,163.25c-4.89.02-15.25.44-20.14.38"/>
      <path class="cls-2" d="M306.22,163.62c-8.22,1.54-16.22.54-24.22.54-18-2-37,0-55.27-.66"/>
      <path class="cls-2" d="M172.37,152.39c-1.93,2.48-7,6.92-6.76,10.35"/>
      <path class="cls-2" d="M215.53,133.46c.47-2.3-.53-4.3-1.53-5.3-6-2-11-7-17-6-5,1-6,7-9.83,11.14"/>
      <path class="cls-2" d="M255.62,109.09c-.66-.46-1.2-1.06-1.76-1.62-5.88-5.89-11.77-11.79-17.65-17.68-2.7-2.7-5.31-2.56-7.79.44-8.23,9.95-16.3,20.02-24.43,30.05-.63.78-1.02,1.65-1.46,2.52"/>
      <path class="cls-2" d="M278.72,162.44c-.61-2.67-2.91-3.98-4.74-5.56-4.22-3.63-8.38-7.33-12.61-10.95-3.35-2.87-6.65-5.82-10-8.69-1.22-1.04-2.49-2.06-3.22-3.54-.12-.25-.29-.51-.47-.56-2.98-.82-4.66-3.4-6.89-5.2-3.49-2.82-6.77-5.89-10.18-8.8-2.41-2.06-4.74-1.6-6.76.12-3.26,2.78-6.58,5.49-9.84,8.27-.19.16-.33.38-.59.44"/>
      <path class="cls-2" d="M251.51,123.54c-.53,1.92-1.18,3.8-1.64,5.74-.34,1.44-1.03,2.76-1.89,3.98"/>
    </g>
    <g>
      <path class="cls-2" d="M254.15,115.43c-.07-2.08,1.11-3.88,1.35-5.89.04-.37.42-.61.85-.76,1.64-.57,3.17-1.41,4.71-2.19,2.37-1.2,4.69-.61,6.17,1.63,2.38,3.61,4.54,7.35,6.74,11.07,5.71,9.65,11.52,19.23,17.25,28.86,2.29,3.84,4.58,7.68,6.9,11.5.56.93,1.03,1.93.89,3.09"/>
      <path class="cls-2" d="M178.3,164.07c-6.77,1.53-13.57-1.82-20.34-.45"/>
      <path class="cls-2" d="M213.41,163.25c-4.89.02-15.25.44-20.14.38"/>
      <path class="cls-2" d="M306.22,163.62c-8.22,1.54-16.22.54-24.22.54-18-2-37,0-55.27-.66"/>
      <path class="cls-2" d="M172.37,152.39c-1.93,2.48-7,6.92-6.76,10.35"/>
      <path class="cls-2" d="M215.53,133.46c.47-2.3-.53-4.3-1.53-5.3-6-2-11-7-17-6-5,1-6,7-9.83,11.14"/>
      <path class="cls-2" d="M255.62,109.09c-.66-.46-1.2-1.06-1.76-1.62-5.88-5.89-11.77-11.79-17.65-17.68-2.7-2.7-5.31-2.56-7.79.44-8.23,9.95-16.3,20.02-24.43,30.05-.63.78-1.02,1.65-1.46,2.52"/>
      <path class="cls-2" d="M278.72,162.44c-.61-2.67-2.91-3.98-4.74-5.56-4.22-3.63-8.38-7.33-12.61-10.95-3.35-2.87-6.65-5.82-10-8.69-1.22-1.04-2.49-2.06-3.22-3.54-.12-.25-.29-.51-.47-.56-2.98-.82-4.66-3.4-6.89-5.2-3.49-2.82-6.77-5.89-10.18-8.8-2.41-2.06-4.74-1.6-6.76.12-3.26,2.78-6.58,5.49-9.84,8.27-.19.16-.33.38-.59.44"/>
      <path class="cls-2" d="M251.51,123.54c-.53,1.92-1.18,3.8-1.64,5.74-.34,1.44-1.03,2.76-1.89,3.98"/>
    </g>
  </g>
  <g id="llama">
    <g>
      <path d="M183.47,175.4l-1.18-4.06c.13.81-.13,1.69-.15,2.44-.01.47.2.99.15,1.62-.23,2.73-3.74,3.44-4.77.79l-.13-13.46c-.07-.23-1.84-1.47-2.19-1.8-2.03-1.87-3.89-5.05-5.19-7.51-5.47-10.33-6.23-22.62-4.55-34.06-2.69.43-4.5,1.32-5.36-1.95-.3-1.15-1.1-4.63-1.12-5.67-.02-.79.5-1.78,1.24-2.13,3.68-1.31,7.62-4.11,11.26-5.28,1.6-.51,3.49.14,5.06.56.2-.16-1.47-2.33-1.59-2.62-1.02-2.54,2.14-4.75,4.24-2.32,1.83,2.11,2.82,5.27,1.83,7.97.95,1.14,1.89,2.47,2.42,3.87,1.84,4.91.11,11.9.79,17.08.24,1.84,1.92,3.27,3.75,3.34h38.52c9.43,1.46,11.3,14.14,2.6,18.11v15.17s2.08,6.06,2.08,6.06l-3.77,17.65c-.27.97-1.16,1.63-2.14,1.7-1.22.09-3.88.04-5.11-.07-1.78-.17-2.61-1.81-1.95-3.44.15-.38,1.17-1.29,1.51-1.29h2.73c-1.09-7.43-3.22-15.59-8.96-20.79l-19.68.12c-.28,1.57.28,4.37-.67,5.6-1.43,1.85-4.21.65-4.31-1.58-.14-3.16.4-7.39,1.1-10.49.41-1.83,1.6-6.21,2.77-7.56,1.37-1.58,4.01-.83,4.21,1.26.13,1.32-.54,1.79-.96,2.88-.62,1.62-1.15,3.3-1.41,5.02h13.88c-1.87-2.97-3.06-7.49-2.66-11,.21-1.87,2.41-2.65,3.84-1.48,1.23,1,.74,1.94.88,3.25.26,2.44.83,5.5,2.5,7.39.87.98,2.11,1.51,3.11,2.36,3.81,3.23,6.46,7.82,8.23,12.44.28.73.46,1.67.76,2.34.08.17-.07.27.31.21l.86-4.21c-.34-1.86-1.82-4.11-2.03-5.92-.69-5.99,1.03-14.51-.38-20.14-.46-1.82-2.38-4.19.02-5.59,2.88-1.68,4.23,2.7,4.7,4.7,2.99-2.99.72-7.87-3.39-7.98-11.03.09-22.06-.09-33.08,0-4.12.03-7.58.59-10.63-2.94-3.64-4.22-1.66-13.41-2.14-18.82-.28-3.15-3.25-6.04-6.42-6.14l-8.78,4,.38,1.62c1.33-.02,2.65,0,3.98-.02,1.23-.02,2.57.19,3.76-.36.47-.22.92-.75,1.47-.89,1.4-.36,2.85.57,3.05,1.99.29,2.18-2.35,3.34-4.07,3.77-.49.12-2.38.29-2.49.61-.12,1.62-.49,3.24-.61,4.85-.61,7.9.28,16.96,3.52,24.24,1.54,3.47,4.78,8.78,8.24,10.51,1.54.77,2.87.5,3.52,2.38,1.41,4.05,1.98,8.81,3.31,12.93-.35,4.47.51,9.79.01,14.16-.1.87-.73,1.72-1.61,1.93-.77.18-3.36.15-4.22.07-3.52-.33-2.46-5.61,1.11-4.73v-10.7Z"/>
      <path d="M209.15,184.46l3.38-11.46c1.37-2.05,4.65-1.03,4.45,1.49-1.42,4.11-2.17,8.97-3.72,12.97-.57,1.48-1.28,1.78-2.83,1.89s-3.82.19-4.54-1.53c-.9-2.15,1.2-3.73,3.26-3.37Z"/>
    </g>
  </g>
  <g id="Layer_5" data-name="Layer 5">
    <g id="Layer_8" data-name="Layer 8">
      <g>
        <rect class="cls-1" x="13.73" y="96.84" width="513.16" height="88.57"/>
        <path class="cls-3" d="M34.85,162.1c0,1.02-.32,1.85-.97,2.5s-1.48.97-2.5.97h-11.38c-1.02,0-1.85-.32-2.5-.97-.65-.65-.97-1.48-.97-2.5v-12.41h4.34v12.03h9.62v-45.06h4.34v45.44Z"/>
        <path class="cls-3" d="M58.73,165.57h-16.06v-48.91h15.88v3.84h-11.53v18.25h10.5v3.91h-10.5v19.06h11.72v3.84Z"/>
        <path class="cls-3" d="M95.91,116.67l-6.66,49.03h-3.53l-5.31-36.88c-.02-.65-.06-1.6-.12-2.88,0,.67-.04,1.62-.12,2.88l-5.31,36.88h-3.53l-6.66-49.03h4.31l4.16,35.28c.02.79.06,1.96.12,3.5-.02-.79.02-1.96.12-3.5l5.06-35.28h3.72l5.03,35.28c.04.79.08,1.96.12,3.5,0-.79.05-1.96.16-3.5l4.16-35.28h4.28Z"/>
        <path class="cls-3" d="M118.23,165.57h-16.06v-48.91h15.88v3.84h-11.53v18.25h10.5v3.91h-10.5v19.06h11.72v3.84Z"/>
        <path class="cls-3" d="M141.03,165.57h-15.62v-48.91h4.34v45.06h11.28v3.84Z"/>
        <path class="cls-3" d="M329.98,120.51h-7.56v45.06h-4.34v-45.06h-7.62v-3.84h19.53v3.84Z"/>
        <path class="cls-3" d="M355.88,165.57h-4.56l-9.09-26.19.59-.88h7.75v-18h-11.16v45.06h-4.34v-48.91h16.38c1.02,0,1.85.32,2.5.97.65.65.97,1.48.97,2.5v18.56c0,2.35-1.58,3.53-4.75,3.53-.31,0-.77-.02-1.38-.05-.6-.03-1.04-.05-1.31-.05,2.81,7.79,5.61,15.6,8.41,23.44Z"/>
        <path class="cls-3" d="M384.28,165.57h-4.31l-1.72-10.88h-9.72l-1.72,10.88h-4.19v-.12l8.72-48.91h4.28l8.66,49.03ZM377.68,150.85l-4.28-26.5-4.31,26.5h8.59Z"/>
        <path class="cls-3" d="M405.79,116.67l-8.47,49.03h-4.09l-8.47-49.03h4.31l6.06,38.94.19,3.19c.02-.73.09-1.79.22-3.19l6.06-38.94h4.19Z"/>
        <path class="cls-3" d="M427.92,165.57h-16.06v-48.91h15.88v3.84h-11.53v18.25h10.5v3.91h-10.5v19.06h11.72v3.84Z"/>
        <path class="cls-3" d="M450.71,165.57h-15.62v-48.91h4.34v45.06h11.28v3.84Z"/>
        <path class="cls-3" d="M475.71,162.1c0,1.02-.32,1.85-.95,2.5-.64.65-1.46.97-2.48.97h-12.31c-1.02,0-1.86-.32-2.52-.97-.66-.65-.98-1.48-.98-2.5v-12.41h4.34v12.03h10.56v-11.66l-13.5-16.31c-.94-1.12-1.41-2.36-1.41-3.72v-9.91c0-1.02.33-1.85.98-2.5.66-.65,1.49-.97,2.52-.97h12.31c1.02,0,1.85.32,2.48.97.63.65.95,1.48.95,2.5v11.38h-4.34v-11h-10.56v10.31l13.56,16.31c.9,1.08,1.34,2.3,1.34,3.66v11.31Z"/>
      </g>
    </g>
  </g>
</svg>